<svg width="32" height="32" viewBox="0 0 32 32" fill="none" xmlns="http://www.w3.org/2000/svg">
<path d="M16.0541 1C16.3088 1.02756 16.5666 1.05206 16.8214 1.08575C19.1139 1.37362 21.0988 2.30768 22.7639 3.88485C24.4972 5.52634 25.5472 7.5292 25.892 9.87811C26.1654 11.7523 25.9137 13.5623 25.2055 15.3232C24.2363 17.7334 22.9316 19.9659 21.5648 22.1678C19.701 25.1721 17.6601 28.06 15.5695 30.9112C15.5508 30.9388 15.526 30.9633 15.498 31C15.4701 30.9694 15.4514 30.9479 15.4328 30.9234C13.2739 27.9804 11.1708 24.9976 9.25419 21.8953C8.19802 20.1895 7.18534 18.4561 6.34972 16.6339C5.88065 15.608 5.42091 14.5729 5.21278 13.4551C4.52005 9.72805 5.5141 6.50633 8.26325 3.85729C9.93449 2.24643 11.9723 1.34606 14.2896 1.06737C14.504 1.04287 14.7214 1.02144 14.9358 1C15.3085 1 15.6813 1 16.0541 1ZM15.4856 27.8763C15.5198 27.8334 15.5353 27.815 15.5508 27.7967C17.1196 25.6039 18.6479 23.3836 20.0613 21.0898C21.3443 19.0074 22.5837 16.9004 23.4939 14.6219C24.168 12.9375 24.3357 11.2195 23.9288 9.45856C22.8229 4.67497 17.8868 1.80849 13.0937 3.15292C8.35023 4.4851 5.67874 9.56268 7.3127 14.1533C7.89049 15.7764 8.69193 17.2954 9.54308 18.7869C11.087 21.488 12.8079 24.0757 14.5972 26.6207C14.8892 27.0341 15.1812 27.4475 15.4856 27.8763Z" fill="#FE8647"/>
<path d="M15.2497 15.675C12.9012 15.6686 10.9969 13.7254 11 11.3296C11.0031 8.94009 12.9198 6.99369 15.2652 7.00002C17.6107 7.00635 19.5181 8.95591 19.5149 11.3486C19.5118 13.7412 17.6013 15.6781 15.2497 15.675ZM15.2528 13.7982C16.5762 13.8013 17.6635 12.7 17.6697 11.3486C17.6759 9.99399 16.5855 8.88312 15.2528 8.88628C13.9232 8.88945 12.8422 9.99083 12.8422 11.3422C12.8453 12.6873 13.9294 13.795 15.2528 13.7982Z" fill="#FE8647"/>
</svg>
