<svg width="120" height="120" viewBox="0 0 120 120" fill="none" xmlns="http://www.w3.org/2000/svg">
<path d="M59.8861 92.9659C51.8806 92.9659 43.8751 92.9866 35.849 92.9452C34.7967 92.9452 33.7032 92.8212 32.7128 92.5318C29.8242 91.6841 28.2974 89.5755 28.2767 86.5571C28.2561 83.6215 28.2767 80.7066 28.2767 77.771C28.2767 75.3315 29.3497 73.1608 30.1543 70.9488C33.7032 61.0049 37.252 51.0817 40.8627 41.1584C41.2548 40.0834 41.8737 39.0704 42.4927 38.0988C42.8847 37.4786 43.545 37.1271 44.2465 37.706C44.9274 38.2848 44.8036 38.8844 44.329 39.6079C43.8132 40.3729 43.3799 41.1998 43.0704 42.0681C39.1296 52.9629 35.23 63.8785 31.3304 74.794C31.186 75.1868 31.0622 75.5796 30.959 75.9724C30.1131 79.1147 31.578 81.1821 34.8173 81.4508C35.1681 81.4715 35.4982 81.4715 35.849 81.4715C51.7568 81.4715 67.6853 81.4715 83.5932 81.4508C84.4804 81.4508 85.3882 81.3475 86.2135 81.0787C88.3387 80.4172 89.2878 78.846 88.7307 76.696C88.1943 74.6079 87.4309 72.5613 86.7087 70.5353C83.3043 61.0049 79.8999 51.4951 76.4749 41.9854C76.1654 41.1171 75.6702 40.3108 75.175 39.5459C74.7417 38.8637 74.6592 38.2642 75.2782 37.706C75.9178 37.1685 76.578 37.3959 76.9907 37.9954C77.6097 38.8844 78.2287 39.8353 78.6 40.8483C82.6441 52.0326 86.6675 63.2376 90.6289 74.4632C91.021 75.5796 91.186 76.82 91.2273 77.9984C91.3098 80.7066 91.2686 83.4355 91.2686 86.1644C91.2686 90.3197 88.8133 92.8625 84.6248 92.9659C82.3552 93.0279 80.0856 92.9866 77.816 92.9866C71.8531 92.9659 65.8696 92.9659 59.8861 92.9659ZM30.8558 82.6085C30.7733 82.8153 30.6908 82.9186 30.6908 83.0013C30.6908 84.2417 30.6701 85.4821 30.6908 86.7225C30.732 88.5625 31.5574 89.6995 33.3318 90.2163C34.1158 90.4437 34.9411 90.5471 35.7664 90.5471C51.7156 90.5678 67.6647 90.5678 83.6138 90.5471C84.4391 90.5471 85.2644 90.4851 86.0691 90.2784C87.3071 89.9683 88.4831 89.286 88.6895 87.9423C88.9577 86.247 88.9164 84.4898 88.9989 82.6499C88.6276 82.7119 88.4831 82.6912 88.38 82.7532C86.7293 83.6836 84.9549 83.8283 83.098 83.8283C68.7582 83.8076 54.4391 83.8489 40.0993 83.8076C36.9631 83.8283 33.7444 84.4278 30.8558 82.6085Z" fill="#FE8647" stroke="#FE8647" stroke-width="0.5"/>
<path d="M45.6233 75.7672C42.3014 75.1871 38.9796 74.5847 35.6264 74.0493C34.4355 73.8485 34.5295 73.3576 34.9369 72.8222C35.2503 72.3982 35.125 71.3496 36.4098 71.8405C39.575 73.0006 42.6775 74.2724 45.8113 75.4995C45.7487 75.611 45.686 75.678 45.6233 75.7672Z" fill="#FE8647" stroke="#FE8647" stroke-width="0.5"/>
<path d="M53.5907 77.2167C56.2786 76.8233 58.5497 76.5093 60.8208 76.1953C61.5195 76.0832 61.8358 76.3479 61.7898 77.024C61.7622 77.5332 61.7626 78.0505 61.7428 78.5332C61.7045 79.1829 61.2972 79.4375 60.6758 79.2848C58.4086 78.6518 56.2127 77.9821 53.5907 77.2167Z" fill="#FE8647" stroke="#FE8647" stroke-width="0.5"/>
<path d="M44.4187 71.7124C42.6025 69.8915 40.7106 68.1664 38.9701 66.2178C38.2134 65.3552 39.3485 64.8441 39.6764 64.2371C39.8782 63.8538 40.2566 63.2149 40.6602 63.9177C42.0728 66.3455 43.4097 68.8053 44.797 71.2332C44.6709 71.3929 44.5448 71.5526 44.4187 71.7124Z" fill="#FE8647" stroke="#FE8647" stroke-width="0.5"/>
<path d="M58.4785 72.7495C60.7902 71.5564 63.0654 70.2496 65.4383 69.1822C66.4818 68.7238 66.3122 70.0849 66.6184 70.6495C66.8145 71.0006 67.1203 71.6291 66.376 71.783C63.7958 72.3335 61.2285 72.794 58.6608 73.3185C58.6 73.1288 58.5393 72.9392 58.4785 72.7495Z" fill="#FE8647" stroke="#FE8647" stroke-width="0.5"/>
<path d="M70.1335 25.5045C70.1533 21.9212 67.879 19.4448 64.3589 19.0508C60.9178 18.6756 58.6238 20.3829 57.7537 23.9849C57.7339 24.0975 57.6943 24.2288 57.6548 24.3414C56.666 29.4818 55.6772 34.6034 54.6488 39.7251C54.3719 41.1134 54.3917 42.4642 55.0839 43.7399C55.1828 43.9275 55.3805 44.2277 55.0839 44.3027C54.1742 44.5841 54.3917 45.3721 54.2731 45.9536C53.0865 52.2197 51.9395 58.5045 50.7925 64.7894C50.1794 68.1475 49.5466 71.5057 48.9533 74.8638C48.9137 75.1265 48.7358 75.4642 48.9731 75.6705C49.2499 75.9144 49.5268 75.633 49.7839 75.5205C51.1682 74.9201 52.5328 74.3198 53.838 73.5693C56.0331 72.2936 57.6152 70.5489 58.4063 68.2226C58.9798 66.5529 59.5335 64.8832 60.0477 63.2135C61.254 59.3488 62.4208 55.4841 63.6272 51.6006C64.0622 50.1748 64.1413 48.7677 63.3107 47.4357C62.6384 46.3664 62.7966 45.8036 63.9436 45.1845C64.7148 44.7717 65.2488 44.1526 65.6443 43.4022C66.0398 42.633 66.2969 41.8263 66.4947 41.0196C67.5033 36.9673 68.4921 32.9337 69.5007 28.8814C69.8171 27.7746 70.1928 26.6302 70.1335 25.5045ZM61.1749 51.3567C59.494 56.5534 58.0107 61.8064 56.2705 66.9844C55.6376 68.8417 54.5697 70.3613 52.8294 71.4119C52.6712 71.5057 52.513 71.6558 52.2955 71.5807C52.1768 71.5432 52.157 71.4494 52.1966 71.0742C52.9876 66.7967 53.7589 62.5193 54.5499 58.2419C55.1828 54.8274 55.8156 51.413 56.4484 47.9986C56.5473 47.5108 56.5473 47.023 57.1604 46.7791C57.4768 46.6478 57.457 46.2538 57.5361 45.9536C57.6548 45.5597 57.813 45.2032 58.1492 44.903C59.4742 43.7024 59.5731 43.7211 60.285 45.3158C60.5421 45.8786 60.1861 46.1412 59.8697 46.4414C59.3951 46.9104 59.2171 47.3044 59.9488 47.6796C61.5704 48.5239 61.6693 49.7996 61.1749 51.3567ZM67.5033 26.8178C66.3958 31.3391 65.2686 35.8792 64.1413 40.4005C64.082 40.6819 64.0029 40.9445 63.904 41.2072C63.3305 43.0833 62.9548 43.3459 60.7794 43.3271C59.9093 43.4397 58.9798 43.102 58.0108 42.8769C57.3186 42.7268 57.0417 42.2953 56.9824 41.6762C56.9231 41.0196 57.0615 40.363 57.1802 39.7251C58.1096 34.9036 59.0391 30.0821 59.9884 25.2606C60.0872 24.7728 60.1861 24.2851 60.3641 23.7973C60.9574 22.0525 61.9857 21.2834 63.6272 21.3209C65.5454 21.3772 67.0682 22.4465 67.523 24.0787C67.7801 25.0355 67.7208 25.9172 67.5033 26.8178Z" fill="#FE8647" stroke="#FE8647" stroke-width="0.5"/>
</svg>
