<svg width="120" height="120" viewBox="0 0 120 120" fill="none" xmlns="http://www.w3.org/2000/svg">
<path d="M64.6637 40.2077C64.6637 43.9092 64.6819 47.6016 64.6546 51.3031C64.6364 53.1857 65.3819 54.6227 66.8273 55.8232C70.8637 59.17 72.4183 63.4991 71.1547 68.5739C69.8819 73.6578 66.4637 76.7681 61.3273 77.7595C54.2636 79.1146 47.6544 74.2216 46.8453 67.0642C46.3271 62.4805 47.9271 58.6698 51.5272 55.7504C52.9181 54.6227 53.6454 53.2312 53.6363 51.4395C53.6272 43.8819 53.6272 36.3151 53.6363 28.7575C53.6363 26.2292 55.1636 24.0919 57.4545 23.3462C61.0182 22.1911 64.6455 24.8377 64.6637 28.612C64.6728 32.4772 64.6637 36.3424 64.6637 40.2077ZM62.8182 40.1258C62.8182 36.2788 62.8364 32.4226 62.8091 28.5756C62.7909 26.1382 60.5 24.4102 58.1818 25.0469C56.5636 25.4925 55.4818 26.9658 55.4818 28.7666C55.4818 36.297 55.4818 43.8273 55.4818 51.3668C55.4818 53.786 54.5454 55.7322 52.6363 57.2237C49.0453 60.0249 47.6635 64.7814 49.1544 69.1195C50.6181 73.3667 54.609 76.1497 59.2 76.1224C63.6909 76.0951 67.7001 73.2303 69.1455 69.0104C70.6092 64.7177 69.2455 60.034 65.6728 57.251C63.7455 55.7504 62.8 53.7951 62.8091 51.3577C62.8273 47.6107 62.8182 43.8637 62.8182 40.1258Z" fill="#FE8647" stroke="#FE8647"/>
<path d="M69.9874 36.4468C69.2783 36.4468 68.5692 36.4559 67.8601 36.4468C67.2146 36.4377 66.8055 36.0739 66.8146 35.51C66.8237 34.9644 67.2146 34.6006 67.8419 34.6006C69.3055 34.5915 70.7783 34.5915 72.2419 34.6006C72.8692 34.6006 73.251 34.9644 73.2601 35.5191C73.2692 36.0921 72.8692 36.4468 72.2147 36.4468C71.4692 36.4468 70.7237 36.4468 69.9874 36.4468Z" fill="#FE8647" stroke="#FE8647"/>
<path d="M70.0237 25.8243C69.2965 25.8243 68.5692 25.8334 67.8419 25.8243C67.2146 25.8152 66.8146 25.4696 66.8146 24.9239C66.8055 24.3782 67.1964 24.0054 67.8237 24.0054C69.3055 23.9963 70.7965 23.9963 72.2783 24.0054C72.8874 24.0054 73.251 24.36 73.2601 24.9057C73.2601 25.4696 72.8874 25.8243 72.2601 25.8334C71.5056 25.8334 70.7692 25.8243 70.0237 25.8243Z" fill="#FE8647" stroke="#FE8647"/>
<path d="M70.0047 47.0421C69.2774 47.0421 68.5502 47.0512 67.8229 47.0421C67.1865 47.033 66.8047 46.6783 66.8047 46.1235C66.8047 45.5778 67.2047 45.2231 67.832 45.2231C69.2865 45.2231 70.7411 45.2231 72.1957 45.2231C72.8684 45.2231 73.2502 45.5596 73.2502 46.1417C73.2502 46.7238 72.8775 47.033 72.1866 47.0421C71.4593 47.0421 70.732 47.0421 70.0047 47.0421Z" fill="#FE8647" stroke="#FE8647"/>
<path d="M68.9229 39.9212C69.3047 39.9212 69.6774 39.9121 70.0593 39.9212C70.6229 39.9394 70.9775 40.3031 70.9775 40.8306C70.9775 41.3399 70.6229 41.7219 70.0956 41.731C69.2956 41.7492 68.4865 41.7492 67.6865 41.731C67.1683 41.7219 66.8047 41.3217 66.8047 40.8215C66.8047 40.3213 67.1592 39.9485 67.6956 39.9212C68.1047 39.903 68.5138 39.9212 68.9229 39.9212Z" fill="#FE8647" stroke="#FE8647"/>
<path d="M68.8601 31.1265C68.4783 31.1265 68.1055 31.1356 67.7237 31.1265C67.1692 31.1083 66.8055 30.7263 66.8146 30.2079C66.8237 29.7077 67.1874 29.3257 67.7146 29.3166C68.5056 29.2984 69.2874 29.2984 70.0783 29.3166C70.6147 29.3257 70.9783 29.6895 70.9874 30.1897C70.9965 30.7263 70.651 31.0992 70.0965 31.1265C69.6783 31.1356 69.2692 31.1265 68.8601 31.1265Z" fill="#FE8647" stroke="#FE8647"/>
<path d="M60.064 49.3386C60.064 52.64 60.0731 55.9414 60.0549 59.2518C60.0549 59.5974 60.1368 59.7429 60.4913 59.843C63.0004 60.5523 64.4914 63.0807 63.9277 65.609C63.3823 68.0736 60.964 69.7652 58.5004 69.4014C55.864 69.0104 54.0458 66.7276 54.2731 64.0902C54.4458 62.1166 55.864 60.3795 57.7913 59.843C58.1731 59.7338 58.2458 59.5792 58.2458 59.2154C58.2367 52.7037 58.2367 46.1828 58.2367 39.671C58.2367 39.471 58.2277 39.2709 58.2549 39.0799C58.3186 38.6433 58.7186 38.3341 59.1549 38.3432C59.6004 38.3523 59.9822 38.6706 60.0368 39.1072C60.0549 39.2527 60.0459 39.4073 60.0459 39.5619C60.064 42.8269 60.064 46.0828 60.064 49.3386ZM59.1368 61.4891C57.4458 61.4982 56.064 62.8897 56.0913 64.5722C56.1185 66.2365 57.4913 67.6098 59.1458 67.6098C60.8277 67.6098 62.2095 66.2274 62.2095 64.5358C62.2004 62.8442 60.8277 61.48 59.1368 61.4891Z" fill="#FE8647" stroke="#FE8647"/>
<path d="M43.2789 30.1792L34.052 33.9133C32.1637 34.6775 30.9277 36.511 30.9277 38.5481V59.8473C30.9277 68.6169 34.7649 76.9475 41.4298 82.6471L53.6187 93.0708C57.3757 96.2838 62.9166 96.2693 66.6568 93.0368L78.6869 82.6398C85.2806 76.9412 89.0704 68.657 89.0704 59.942V38.5971C89.0704 36.5355 87.805 34.6852 85.8838 33.9375L76.2264 30.1792" stroke="#FE8647" stroke-width="3" stroke-linecap="round"/>
</svg>
