<svg width="120" height="120" viewBox="0 0 120 120" fill="none" xmlns="http://www.w3.org/2000/svg">
<path d="M56.0331 64.9042C55.4473 65.49 55.4473 66.4398 56.0331 67.0256C56.6189 67.6114 57.5686 67.6114 58.1544 67.0256L66.9506 58.2294L68.7633 60.0421L63.288 65.5173C62.7022 66.1031 62.7022 67.0529 63.288 67.6386C63.8738 68.2244 64.8235 68.2244 65.4093 67.6386L70.8846 62.1634L73.0041 64.2829L64.2079 73.0791C63.6222 73.6649 63.6222 74.6146 64.2079 75.2004C64.7937 75.7862 65.7435 75.7862 66.3293 75.2004L75.1254 66.4042L77.245 68.5238L71.7697 73.9991C71.1839 74.5849 71.1839 75.5346 71.7697 76.1204C72.3555 76.7062 73.3053 76.7062 73.891 76.1204L79.3663 70.6451L80.9743 72.2531L72.1781 81.0493C71.5923 81.6351 71.5923 82.5848 72.1781 83.1706C72.7639 83.7564 73.7137 83.7564 74.2994 83.1706L83.0956 74.3744L84.7036 75.9824L79.2284 81.4577C78.6426 82.0435 78.6426 82.9932 79.2284 83.579C79.8141 84.1648 80.7639 84.1648 81.3497 83.579L86.8249 78.1037L87.1859 78.4646C88.5527 79.8315 88.5527 82.0476 87.1859 83.4144L78.3166 92.2837C76.9497 93.6505 74.7336 93.6505 73.3668 92.2837L30.775 49.6919C29.4081 48.325 29.4081 46.1089 30.775 44.7421L39.6443 35.8728C41.0111 34.506 43.2272 34.506 44.594 35.8728L44.8527 36.1315L39.3774 41.6068C38.7916 42.1926 38.7916 43.1423 39.3774 43.7281C39.9632 44.3139 40.913 44.3139 41.4988 43.7281L46.974 38.2528L48.6331 39.9119L39.8369 48.7081C39.2512 49.2939 39.2512 50.2436 39.8369 50.8294C40.4227 51.4152 41.3725 51.4152 41.9583 50.8294L50.7544 42.0332L52.4135 43.6923L46.9383 49.1676C46.3525 49.7534 46.3525 50.7031 46.9383 51.2889C47.5241 51.8747 48.4738 51.8747 49.0596 51.2889L54.5349 45.8137L56.6033 47.8821L47.8071 56.6783C47.2213 57.2641 47.2213 58.2138 47.8071 58.7996C48.3929 59.3854 49.3427 59.3854 49.9284 58.7996L58.7246 50.0034L60.7931 52.0719L55.3178 57.5471C54.732 58.1329 54.732 59.0827 55.3178 59.6685C55.9036 60.2542 56.8533 60.2542 57.4391 59.6685L62.9144 54.1932L64.8293 56.1081L56.0331 64.9042Z" stroke="#FE8647" stroke-width="3" stroke-linecap="round" stroke-linejoin="round"/>
<line x1="51.625" y1="24.3049" x2="42.6766" y2="33.2533" stroke="#FE8647" stroke-width="3" stroke-linecap="round"/>
<line x1="87.9336" y1="60.6135" x2="78.9852" y2="69.5619" stroke="#FE8647" stroke-width="3" stroke-linecap="round"/>
<line x1="50.0275" y1="29.0931" x2="81.9082" y2="60.9739" stroke="#FE8647" stroke-width="3"/>
<path d="M55.1661 29.2682L50.2954 29.7109L49.8526 34.5816" stroke="#FE8647" stroke-width="3" stroke-linecap="round" stroke-linejoin="round"/>
<path d="M82.619 56.7211L82.1763 61.5918L77.3056 62.0346" stroke="#FE8647" stroke-width="3" stroke-linecap="round" stroke-linejoin="round"/>
</svg>
