<svg width="24" height="24" viewBox="0 0 24 24" fill="none" xmlns="http://www.w3.org/2000/svg">
<path d="M12.9846 8.32264C13.9983 8.32264 14.9863 8.32264 16 8.32264C15.8823 9.39025 15.7645 10.4374 15.6468 11.5101C14.6382 11.5101 13.6451 11.5101 12.6263 11.5101C12.6263 14.3554 12.6263 17.17 12.6263 19.9999C11.4898 19.9999 10.3788 19.9999 9.24232 19.9999C9.24232 17.1853 9.24232 14.3707 9.24232 11.5204C8.47952 11.5204 7.74232 11.5204 7 11.5204C7 10.4374 7 9.39536 7 8.32775C7.7372 8.32775 8.46928 8.32775 9.2372 8.32775C9.2372 8.21026 9.23208 8.1081 9.2372 8.01104C9.25768 7.36741 9.21672 6.70846 9.31911 6.07505C9.57509 4.51705 10.6246 3.4852 12.2526 3.16339C12.8259 3.05101 13.4198 3.03057 14.0034 3.00503C14.6587 2.97949 15.314 2.99993 15.9795 2.99993C15.9795 4.06753 15.9795 5.1096 15.9795 6.17721C15.8823 6.18232 15.7952 6.19253 15.7031 6.19253C15.0734 6.19253 14.4386 6.19253 13.8089 6.19253C13.6706 6.19253 13.5375 6.19764 13.3993 6.21807C13.1075 6.25894 12.9846 6.37643 12.9795 6.66759C12.9744 7.20906 12.9846 7.74542 12.9846 8.32264Z" fill="#FE8647"/>
</svg>
