<svg width="24" height="24" viewBox="0 0 24 24" fill="none" xmlns="http://www.w3.org/2000/svg">
<path d="M11.9732 21.0001C10.6219 21.0001 9.25324 21.0348 7.90194 21.0001C5.07807 20.9307 3.06845 18.9018 3.0338 16.0752C2.99915 13.3527 2.99915 10.6475 3.0338 7.92496C3.06845 5.11571 5.11272 3.06947 7.91926 3.03479C10.6392 2.98276 13.3418 3.0001 16.0617 3.03479C18.9202 3.06947 20.9472 5.13305 20.9818 7.99432C21.0165 10.6822 21.0165 13.37 20.9818 16.0579C20.9472 18.9192 18.9029 20.9481 16.0444 21.0001C14.6758 21.0174 13.3245 21.0001 11.9732 21.0001ZM11.9558 19.4568C13.2898 19.4568 14.6065 19.4741 15.9404 19.4568C18.0367 19.4221 19.4053 18.0868 19.44 15.9885C19.4746 13.3354 19.4746 10.6822 19.44 8.02901C19.4053 5.9134 18.0367 4.57814 15.9231 4.5608C13.2898 4.52612 10.6738 4.52612 8.05786 4.5608C5.94429 4.57814 4.59299 5.93074 4.57567 8.02901C4.54102 10.6648 4.54102 13.3007 4.55834 15.9192C4.57567 18.1388 5.92696 19.4394 8.16181 19.4568C9.42648 19.4741 10.6912 19.4568 11.9558 19.4568Z" fill="#FE8647"/>
<path d="M16.5653 12.0347C16.5653 14.5491 14.4864 16.5954 11.9744 16.5954C9.46235 16.578 7.40075 14.4971 7.41808 11.9827C7.4354 9.46822 9.51432 7.42198 12.0264 7.43932C14.5384 7.45666 16.5827 9.5029 16.5653 12.0347ZM12.0264 15.052C13.6895 15.0347 15.0235 13.6821 15.0235 12C15.0235 10.3353 13.6722 8.98267 11.9917 8.98267C10.2939 8.98267 8.92529 10.37 8.94262 12.0694C8.99459 13.7341 10.3632 15.0694 12.0264 15.052Z" fill="#FE8647"/>
<path d="M16.9117 6.0173C17.5181 6.0173 18.0032 6.52019 17.9685 7.12712C17.9339 7.76874 17.5527 8.1329 16.9291 8.16759C16.3227 8.20227 15.8203 7.69938 15.8203 7.09244C15.8203 6.4855 16.3054 5.99996 16.9117 6.0173Z" fill="#FE8647"/>
</svg>
