<svg width="249" height="40" viewBox="0 0 249 40" fill="none" xmlns="http://www.w3.org/2000/svg">
<path d="M19.3713 32.8L0.685547 21.9429V29.7143L17.4855 39.4286L19.3713 38.3429V32.8Z" fill="#FE8647"/>
<path d="M15.5996 7.31439L34.2853 18.1715V10.2858L17.4853 0.571533L15.5996 1.65725V7.31439Z" fill="#FE8647"/>
<path d="M9.14269 11.0287V5.37158L0.685547 10.2859V14.5144L25.8284 29.0859V34.6287L34.2855 29.7144V25.6002L9.14269 11.0287Z" fill="white"/>
<path d="M66.2284 11.0856C65.0856 10.5142 63.7713 10.2856 62.2856 10.2856H54.5142V29.7714H59.1999V23.1428H62.1713C64.5713 23.1428 66.3999 22.5714 67.7713 21.4285C69.1427 20.2856 69.8284 18.7428 69.8284 16.8571C69.8284 15.5999 69.4856 14.3999 68.857 13.4285C68.2284 12.4571 67.3713 11.5999 66.2284 11.0856ZM64.3427 18.7999C63.8856 19.2571 63.1427 19.4856 62.2856 19.4856H59.1999V13.8856H62.3427C63.1999 13.8856 63.8856 14.1714 64.3427 14.7428C64.7999 15.3142 65.0856 15.9999 65.0856 16.9142C65.0856 17.7142 64.857 18.3428 64.3427 18.7999Z" fill="#FE8647"/>
<path d="M88.9141 19.4857C89.4856 18.5714 89.7141 17.4857 89.7141 16.1142C89.7141 14.2285 89.0856 12.7999 87.7713 11.7714C86.457 10.7428 84.6856 10.2285 82.3427 10.2285H74.6855V29.7142H79.3713V22.8571H81.9427L85.3713 29.7714H90.3998V29.5428L86.3427 21.6571C87.4856 21.1428 88.3427 20.3999 88.9141 19.4857ZM84.3427 18.5142C83.8856 18.9714 83.1998 19.1999 82.3427 19.1999H79.3713V13.8285H82.3427C83.1998 13.8285 83.8856 14.0571 84.3427 14.5714C84.7998 15.0857 85.0284 15.7142 85.0284 16.5714C85.0284 17.4285 84.7998 18.0571 84.3427 18.5142Z" fill="#FE8647"/>
<path d="M107.314 11.1429C106 10.3429 104.571 9.94287 102.914 9.94287C101.257 9.94287 99.7713 10.3429 98.4571 11.1429C97.1428 11.9429 96.1713 13.0857 95.4285 14.5143C94.6856 15.9429 94.3999 17.6572 94.3999 19.5429V20.6286C94.457 22.4572 94.7999 24.1143 95.5428 25.5429C96.2856 26.9714 97.257 28.0572 98.5713 28.8C99.8856 29.5429 101.314 29.9429 102.971 29.9429C104.628 29.9429 106.114 29.5429 107.428 28.7429C108.743 27.9429 109.714 26.8 110.457 25.3714C111.2 23.9429 111.543 22.2286 111.543 20.3429V19.4286C111.543 17.5429 111.143 15.8857 110.457 14.4572C109.771 13.0286 108.628 11.9429 107.314 11.1429ZM106.628 20.4572C106.628 22.3429 106.286 23.8286 105.657 24.8C105.028 25.7714 104.114 26.2857 102.914 26.2857C101.657 26.2857 100.743 25.7714 100.114 24.7429C99.4856 23.7143 99.1428 22.2286 99.1428 20.3429V18.9143C99.2571 15.3714 100.514 13.6 102.857 13.6C104.057 13.6 104.971 14.1143 105.657 15.0857C106.343 16.0572 106.628 17.5429 106.628 19.4857V20.4572Z" fill="#FE8647"/>
<path d="M116.171 29.7714H120.857V21.9999H128.457V18.3428H120.857V13.8857H129.2V10.2285H116.171V29.7714Z" fill="#FE8647"/>
<path d="M144.229 10.2285L140.629 18.7428L137.029 10.2285H132L138.286 22.7428V29.7714H143.029V22.7428L149.314 10.2285H144.229Z" fill="#FE8647"/>
<path d="M158.229 14.1143C158.743 13.7714 159.371 13.5429 160.229 13.5429C161.086 13.5429 161.714 13.7714 162.229 14.1714C162.743 14.5714 162.971 15.2 162.971 16H167.657C167.657 14.8 167.371 13.7714 166.743 12.8571C166.114 11.9429 165.257 11.2 164.171 10.7429C163.086 10.2857 161.829 10 160.4 10C158.971 10 157.657 10.2286 156.514 10.6857C155.371 11.1429 154.457 11.7714 153.829 12.6286C153.2 13.4857 152.857 14.4 152.857 15.4857C152.857 17.6571 154.114 19.3714 156.629 20.6286C157.429 21.0286 158.4 21.4286 159.6 21.8286C160.8 22.2286 161.657 22.6286 162.171 23.0286C162.686 23.4286 162.914 23.9429 162.914 24.6286C162.914 25.2571 162.686 25.7143 162.229 26.0571C161.771 26.4 161.143 26.5714 160.4 26.5714C159.2 26.5714 158.286 26.3429 157.771 25.8286C157.257 25.3143 156.971 24.5714 156.971 23.5429H152.286C152.286 24.8 152.629 25.9429 153.257 26.9714C153.886 28 154.857 28.7429 156.171 29.3143C157.486 29.8857 158.857 30.1714 160.457 30.1714C162.686 30.1714 164.457 29.6571 165.771 28.6857C167.086 27.7143 167.714 26.4 167.714 24.6857C167.714 22.5714 166.686 20.8571 164.571 19.6571C163.714 19.1429 162.571 18.6857 161.257 18.2857C159.943 17.8857 158.971 17.4286 158.457 17.0286C157.943 16.6286 157.657 16.1714 157.657 15.6571C157.486 14.9143 157.714 14.4571 158.229 14.1143Z" fill="white"/>
<path d="M171.372 13.8857H177.086V29.7714H181.829V13.8857H187.657V10.2285H171.372V13.8857Z" fill="white"/>
<path d="M204 11.1429C202.685 10.3429 201.257 9.94287 199.6 9.94287C197.943 9.94287 196.457 10.3429 195.143 11.1429C193.828 11.9429 192.857 13.0857 192.114 14.5143C191.371 15.9429 191.085 17.6572 191.085 19.5429V20.6286C191.143 22.4572 191.485 24.1143 192.228 25.5429C192.971 26.9714 193.943 28.0572 195.257 28.8C196.571 29.5429 198 29.9429 199.657 29.9429C201.314 29.9429 202.8 29.5429 204.114 28.7429C205.428 27.9429 206.4 26.8 207.143 25.3714C207.885 23.9429 208.228 22.2286 208.228 20.3429V19.4286C208.228 17.5429 207.828 15.8857 207.143 14.4572C206.457 13.0286 205.314 11.9429 204 11.1429ZM203.314 20.4572C203.314 22.3429 202.971 23.8286 202.343 24.8C201.714 25.7714 200.8 26.2857 199.6 26.2857C198.343 26.2857 197.428 25.7714 196.8 24.7429C196.171 23.7143 195.828 22.2286 195.828 20.3429V18.9143C195.943 15.3714 197.2 13.6 199.543 13.6C200.743 13.6 201.657 14.1143 202.343 15.0857C203.028 16.0572 203.314 17.5429 203.314 19.4857V20.4572Z" fill="white"/>
<path d="M224.457 22.3999L217.543 10.2285H212.857V29.7714H217.543V17.5999L224.457 29.7714H229.143V10.2285H224.457V22.3999Z" fill="white"/>
<path d="M247.886 13.8857V10.2285H234.457V29.7714H247.886V26.1142H239.143V21.4857H246.571V17.9999H239.143V13.8857H247.886Z" fill="white"/>
</svg>
