<svg width="249" height="40" viewBox="0 0 249 40" fill="none" xmlns="http://www.w3.org/2000/svg">
<path d="M19.3732 32.8001L0.6875 21.943V29.7144L17.4875 39.4287L19.3732 38.343V32.8001Z" fill="#FE8647"/>
<path d="M15.6016 7.31439L34.2873 18.1715V10.2858L17.4873 0.571533L15.6016 1.65725V7.31439Z" fill="#FE8647"/>
<path d="M9.14464 11.0287V5.37158L0.6875 10.2859V14.5144L25.8304 29.0859V34.6287L34.2875 29.7144V25.6002L9.14464 11.0287Z" fill="#595959"/>
<path d="M66.2299 11.0859C65.0871 10.5145 63.7728 10.2859 62.2871 10.2859H54.5156V29.7716H59.2013V23.143H62.1728C64.5728 23.143 66.4013 22.5716 67.7728 21.4287C69.1442 20.2859 69.8299 18.743 69.8299 16.8573C69.8299 15.6002 69.4871 14.4002 68.8585 13.4287C68.2299 12.4573 67.3728 11.6002 66.2299 11.0859ZM64.3442 18.8002C63.8871 19.2573 63.1442 19.4859 62.2871 19.4859H59.2013V13.8859H62.3442C63.2013 13.8859 63.8871 14.1716 64.3442 14.743C64.8013 15.3145 65.0871 16.0002 65.0871 16.9145C65.0871 17.7145 64.8585 18.343 64.3442 18.8002Z" fill="#FE8647"/>
<path d="M88.9161 19.4859C89.4875 18.5716 89.7161 17.4859 89.7161 16.1145C89.7161 14.2288 89.0875 12.8002 87.7732 11.7716C86.4589 10.743 84.6875 10.2288 82.3446 10.2288H74.6875V29.7145H79.3732V22.8573H81.9446L85.3732 29.7716H90.4018V29.543L86.3446 21.6573C87.4875 21.143 88.3446 20.4002 88.9161 19.4859ZM84.3446 18.5145C83.8875 18.9716 83.2018 19.2002 82.3446 19.2002H79.3732V13.8288H82.3446C83.2018 13.8288 83.8875 14.0573 84.3446 14.5716C84.8018 15.0859 85.0304 15.7145 85.0304 16.5716C85.0304 17.4288 84.8018 18.0573 84.3446 18.5145Z" fill="#FE8647"/>
<path d="M107.317 11.143C106.002 10.343 104.574 9.94299 102.917 9.94299C101.259 9.94299 99.7738 10.343 98.4595 11.143C97.1452 11.943 96.1738 13.0859 95.4309 14.5144C94.6881 15.943 94.4023 17.6573 94.4023 19.543V20.6287C94.4595 22.4573 94.8023 24.1144 95.5452 25.543C96.2881 26.9716 97.2595 28.0573 98.5738 28.8001C99.8881 29.543 101.317 29.943 102.974 29.943C104.631 29.943 106.117 29.543 107.431 28.743C108.745 27.943 109.717 26.8001 110.46 25.3716C111.202 23.943 111.545 22.2287 111.545 20.343V19.4287C111.545 17.543 111.145 15.8859 110.46 14.4573C109.774 13.0287 108.631 11.943 107.317 11.143ZM106.631 20.4573C106.631 22.343 106.288 23.8287 105.659 24.8001C105.031 25.7716 104.117 26.2859 102.917 26.2859C101.659 26.2859 100.745 25.7716 100.117 24.743C99.4881 23.7144 99.1452 22.2287 99.1452 20.343V18.9144C99.2595 15.3716 100.517 13.6001 102.859 13.6001C104.059 13.6001 104.974 14.1144 105.659 15.0859C106.345 16.0573 106.631 17.543 106.631 19.4859V20.4573Z" fill="#FE8647"/>
<path d="M116.172 29.7716H120.858V22.0002H128.458V18.343H120.858V13.8859H129.2V10.2288H116.172V29.7716Z" fill="#FE8647"/>
<path d="M144.229 10.2286L140.629 18.7429L137.029 10.2286H132L138.286 22.7429V29.7715H143.029V22.7429L149.314 10.2286H144.229Z" fill="#FE8647"/>
<path d="M158.228 14.1144C158.742 13.7716 159.371 13.543 160.228 13.543C161.085 13.543 161.714 13.7716 162.228 14.1716C162.742 14.5716 162.971 15.2001 162.971 16.0001H167.657C167.657 14.8001 167.371 13.7716 166.742 12.8573C166.114 11.943 165.257 11.2001 164.171 10.743C163.085 10.2858 161.828 10.0001 160.399 10.0001C158.971 10.0001 157.657 10.2287 156.514 10.6858C155.371 11.143 154.457 11.7716 153.828 12.6287C153.199 13.4858 152.857 14.4001 152.857 15.4858C152.857 17.6573 154.114 19.3716 156.628 20.6287C157.428 21.0287 158.399 21.4287 159.599 21.8287C160.799 22.2287 161.657 22.6287 162.171 23.0287C162.685 23.4287 162.914 23.943 162.914 24.6287C162.914 25.2573 162.685 25.7144 162.228 26.0573C161.771 26.4001 161.142 26.5716 160.399 26.5716C159.199 26.5716 158.285 26.343 157.771 25.8287C157.257 25.3144 156.971 24.5716 156.971 23.543H152.285C152.285 24.8001 152.628 25.943 153.257 26.9716C153.885 28.0001 154.857 28.743 156.171 29.3144C157.485 29.8858 158.857 30.1716 160.457 30.1716C162.685 30.1716 164.457 29.6573 165.771 28.6858C167.085 27.7144 167.714 26.4001 167.714 24.6858C167.714 22.5716 166.685 20.8573 164.571 19.6573C163.714 19.143 162.571 18.6858 161.257 18.2858C159.942 17.8858 158.971 17.4287 158.457 17.0287C157.942 16.6287 157.657 16.1716 157.657 15.6573C157.485 14.9144 157.714 14.4573 158.228 14.1144Z" fill="#595959"/>
<path d="M171.371 13.8858H177.085V29.7715H181.828V13.8858H187.657V10.2286H171.371V13.8858Z" fill="#595959"/>
<path d="M204 11.143C202.686 10.343 201.257 9.94299 199.6 9.94299C197.943 9.94299 196.457 10.343 195.143 11.143C193.829 11.943 192.857 13.0859 192.115 14.5144C191.372 15.943 191.086 17.6573 191.086 19.543V20.6287C191.143 22.4573 191.486 24.1144 192.229 25.543C192.972 26.9716 193.943 28.0573 195.257 28.8001C196.572 29.543 198 29.943 199.657 29.943C201.315 29.943 202.8 29.543 204.115 28.743C205.429 27.943 206.4 26.8001 207.143 25.3716C207.886 23.943 208.229 22.2287 208.229 20.343V19.4287C208.229 17.543 207.829 15.8859 207.143 14.4573C206.457 13.0287 205.315 11.943 204 11.143ZM203.315 20.4573C203.315 22.343 202.972 23.8287 202.343 24.8001C201.715 25.7716 200.8 26.2859 199.6 26.2859C198.343 26.2859 197.429 25.7716 196.8 24.743C196.172 23.7144 195.829 22.2287 195.829 20.343V18.9144C195.943 15.3716 197.2 13.6001 199.543 13.6001C200.743 13.6001 201.657 14.1144 202.343 15.0859C203.029 16.0573 203.315 17.543 203.315 19.4859V20.4573Z" fill="#595959"/>
<path d="M224.455 22.4001L217.541 10.2286H212.855V29.7715H217.541V17.6001L224.455 29.7715H229.141V10.2286H224.455V22.4001Z" fill="#595959"/>
<path d="M247.886 13.8859V10.2288H234.457V29.7716H247.886V26.1145H239.143V21.4859H246.571V18.0002H239.143V13.8859H247.886Z" fill="#595959"/>
</svg>
