<svg width="512" height="512" viewBox="0 0 512 512" fill="none" xmlns="http://www.w3.org/2000/svg">
<path d="M0 64C0 28.6538 28.6538 0 64 0H448C483.346 0 512 28.6538 512 64V448C512 483.346 483.346 512 448 512H64C28.6538 512 0 483.346 0 448V64Z" fill="#1D1D1D"/>
<path d="M281.143 424.654L32 281.594V383.994L256 511.995L281.143 497.689V424.654Z" fill="#FE8647"/>
<path d="M230.844 88.8477L479.987 231.908V128.001L255.987 0L230.844 14.306V88.8477Z" fill="#FE8647"/>
<path d="M144.762 137.792V63.25L32 128.003V183.721L367.238 375.723V448.759L480 384.005V329.793L144.762 137.792Z" fill="white"/>
</svg>
