<svg width="32" height="32" viewBox="0 0 32 32" fill="none" xmlns="http://www.w3.org/2000/svg">
<path d="M6.54962 3.03369C7.5458 3.03369 8.50191 3.03369 9.45229 3.03369C12.1718 3.02809 14.8912 3.0225 17.605 3.01131C18.5668 3.01131 19.5344 3.00012 20.4962 2.99452C20.9198 2.98893 21.2748 3.15118 21.5725 3.43651C23.0553 4.86315 24.5324 6.2898 26.021 7.71085C26.3645 8.04094 26.5134 8.41578 26.5019 8.88574C26.4847 9.59067 26.4962 10.3012 26.5134 11.0061C26.5191 11.3754 26.7252 11.6439 27.0172 11.8733C27.75 12.444 28.4599 13.0314 29.1813 13.6133C29.7023 14.0329 29.8511 14.6371 29.8912 15.2413C29.9657 16.3658 29.9943 17.4904 30 18.6205C30.0057 20.7073 29.9828 22.7942 29.9657 24.8866C29.9599 25.7705 30 26.6657 29.9027 27.5385C29.7424 28.9875 28.8664 29.7819 27.3721 29.9218C26.7309 29.9833 26.0782 29.9833 25.4313 29.9833C20.2729 29.9945 15.1088 30.0001 9.95038 30.0057C8.55916 30.0057 7.16794 30.0113 5.77099 29.9833C4.3855 29.9554 3.49237 29.2336 3.18321 27.9301C3.10305 27.5944 3.06298 27.2475 3.04008 26.9063C3.01145 26.358 3.01145 25.8097 3.01145 25.2558C3.01145 22.1508 3 19.0457 3 15.9407C3 15.6497 3.02863 15.3644 3.05153 15.0735C3.10305 14.4916 3.38359 14.0385 3.82443 13.6524C4.46565 13.0929 5.07824 12.4999 5.73664 11.9684C6.36641 11.4593 6.6126 10.8886 6.57252 10.0606C6.47519 8.14164 6.50382 6.20588 6.49237 4.27571C6.49237 3.8617 6.53244 3.4421 6.54962 3.03369ZM18.7099 14.5028C18.813 14.5252 18.8302 14.5364 18.8473 14.5308C18.8931 14.5252 18.9389 14.514 18.9847 14.5028C19.5344 14.3574 19.9008 13.9881 20.1985 13.5349C20.6279 12.8804 20.8397 12.1474 20.9828 11.3922C21.1317 10.5977 21 9.89838 20.3931 9.30534C20.2443 9.15988 20.1813 8.9305 20.0439 8.76825C19.8836 8.57244 19.7176 8.33746 19.4943 8.23675C18.5439 7.80037 17.5363 7.68288 16.5057 7.90667C13.7118 8.5053 11.6966 11.3642 12.1031 14.128C12.3779 15.991 13.6947 17.1827 15.6011 17.3449C16.5172 17.4232 17.3588 17.2051 18.1889 16.8862C18.6469 16.7071 19.1221 16.6456 19.6546 16.6624C19.5973 16.8358 19.563 16.9925 19.4943 17.1323C19.1966 17.7421 18.6584 18.089 18.0458 18.3352C16.9466 18.7772 15.8015 18.8443 14.645 18.6149C12.9905 18.2848 11.708 17.44 10.9809 15.9183C10.437 14.7881 10.3626 13.5853 10.5401 12.36C11.1011 8.44376 15.0057 5.88139 18.624 6.68143C19.105 6.78773 19.5859 6.88284 20.0725 6.98914C20.0725 6.14993 20.0725 5.32751 20.0725 4.4995C16.0649 4.4995 12.0859 4.4995 8.0897 4.4995C8.08397 4.6002 8.07824 4.65615 8.07824 4.7121C8.07824 8.32067 8.07825 11.9293 8.08397 15.5378C8.08397 15.6553 8.16412 15.8064 8.25573 15.8791C9.10305 16.5169 9.95611 17.1379 10.8092 17.7645C11.9542 18.6037 13.0935 19.4429 14.2557 20.2933C15.0802 19.6835 15.8931 19.0737 17.021 19.1072C18.1317 19.1408 19.0191 19.5828 19.7519 20.3716C19.8435 20.3157 19.9122 20.2821 19.9695 20.2374C21.5897 18.9506 23.2157 17.6694 24.8302 16.377C24.916 16.3099 24.9618 16.1532 24.9618 16.0414C24.9618 14.1951 24.9561 12.3489 24.9504 10.5026C24.9504 10.1725 24.9504 9.84243 24.9504 9.51234C24.0401 9.51234 23.187 9.51234 22.3168 9.51234C22.3282 9.63543 22.3397 9.73613 22.3511 9.83684C22.4771 10.7991 22.4428 11.7558 22.1622 12.6901C21.7844 13.9657 21.1317 15.0567 19.8893 15.7113C19.2996 16.0246 18.6641 16.1029 18.0401 15.8847C17.7481 15.784 17.5076 15.5434 17.2786 15.3924C16.7748 15.5546 16.2939 15.756 15.7844 15.8567C14.3015 16.1532 13.1336 15.2693 13.0477 13.7979C12.979 12.651 13.3969 11.6383 14.084 10.732C14.5821 10.0718 15.2576 9.65221 16.0706 9.43961C16.8836 9.22142 17.708 9.19345 18.5382 9.25499C18.9962 9.28856 19.4599 9.3445 19.9809 9.39486C19.8721 9.94314 19.7977 10.4411 19.666 10.9222C19.4256 11.7726 19.1336 12.6118 18.8874 13.4622C18.7958 13.7923 18.7729 14.1503 18.7099 14.5028ZM5.83397 28.6126C5.84542 28.635 5.8626 28.6574 5.87405 28.6798C13.1851 28.6798 20.5019 28.6798 27.8645 28.6798C27.75 28.5847 27.6813 28.5231 27.6069 28.4616C25.0821 26.4587 22.563 24.4502 20.0382 22.4473C19.3969 21.9382 18.7557 21.4179 18.0916 20.9367C17.4847 20.4947 16.8206 20.4612 16.1622 20.8472C15.8531 21.0262 15.5496 21.2276 15.2634 21.4402C12.6584 23.3984 10.0534 25.3621 7.4542 27.3314C6.91031 27.7566 6.37786 28.1874 5.83397 28.6126ZM4.6145 15.0959C4.6145 19.2863 4.6145 23.376 4.6145 27.5552C7.45992 25.6027 10.0191 23.3984 12.8187 21.4458C12.5782 21.222 12.3779 20.9927 12.1374 20.8136C10.9294 19.8737 9.7042 18.9506 8.49618 18.0107C7.41412 17.1715 6.34924 16.3099 5.2729 15.4651C5.08969 15.3252 4.86641 15.2357 4.6145 15.0959ZM28.3969 15.5658C25.9523 17.5351 23.5592 19.4597 21.1489 21.4011C23.5706 23.2865 25.895 25.2334 28.3969 27.0461C28.3969 23.1914 28.3969 19.415 28.3969 15.5658ZM17.479 10.5194C15.6985 10.5306 14.4905 12.4048 14.6508 13.6972C14.7424 14.4469 15.2405 14.777 16.0019 14.6371C16.6202 14.5252 16.9752 14.1168 17.2443 13.6189C17.6966 12.7852 17.9141 11.8789 18.0973 10.967C18.1374 10.7544 18.0172 10.6481 17.8454 10.5865C17.7023 10.5418 17.5477 10.5306 17.479 10.5194ZM23.834 8.06891C23.0725 7.33041 22.3168 6.59191 21.5553 5.84782C21.5553 6.57513 21.5553 7.31363 21.5553 8.06891C22.3282 8.06891 23.084 8.06891 23.834 8.06891ZM27.5782 14.1839C27.1947 13.8986 26.8683 13.6636 26.5191 13.4063C26.5191 13.9545 26.5191 14.4637 26.5191 15.0623C26.8969 14.749 27.2176 14.4804 27.5782 14.1839Z" fill="#FE8647"/>
</svg>
