<svg width="76" height="76" viewBox="0 0 76 76" fill="none" xmlns="http://www.w3.org/2000/svg">
<path d="M61.78 41.1502C62.2171 41.1502 62.6038 41.1165 62.9736 41.1586C64.4698 41.3272 65.5878 42.0771 66.1762 43.476C66.7898 44.9254 66.5545 46.3073 65.6298 47.5713C65.4869 47.7651 65.3188 47.9337 65.1507 48.1022C60.309 52.9559 55.4589 57.8097 50.6172 62.6719C49.5413 63.7505 48.2636 64.2898 46.7338 64.2813C41.0767 64.2645 35.4113 64.2813 29.7542 64.2729C29.4264 64.2729 29.1658 64.3488 28.9137 64.5678C28.485 64.947 28.0227 65.2925 27.5604 65.6802C27.6276 65.8066 27.6864 65.9077 27.7453 66.0172C28.9305 68.0565 28.6195 70.5929 26.9635 72.2698C26.3247 72.9186 25.6775 73.5591 25.0302 74.2079C23.9543 75.2781 22.5253 75.2865 21.4494 74.2079C17.0196 69.7755 12.5898 65.3347 8.16837 60.8938C7.98345 60.7085 7.79012 60.5231 7.6136 60.3208C6.78143 59.377 6.79824 57.9698 7.66403 57.0681C8.37011 56.3266 9.093 55.6019 9.8327 54.8941C11.4214 53.3688 13.8759 53.0655 15.8344 54.1441C15.9521 54.2115 16.0781 54.2789 16.1622 54.3295C16.9271 53.4363 17.6332 52.5178 18.4317 51.7004C19.2219 50.8914 20.1045 50.1836 20.9619 49.4167C15.6663 43.931 13.0941 37.3498 13.5985 29.6647C13.9767 24.0104 16.1034 19.0387 19.8607 14.817C24.0888 10.0728 29.3844 7.27512 35.6971 6.542C42.0014 5.80888 47.7845 7.30883 53.0465 10.9323C53.265 10.6373 53.4752 10.3593 53.6769 10.0728C55.1731 8.01666 56.6609 5.96056 58.1572 3.91289C59.3676 2.25284 61.3681 1.59556 63.2258 2.24441C65.0919 2.89327 66.2687 4.64601 66.1762 6.67683C66.1342 7.57005 65.8148 8.37058 65.2852 9.08685C63.3771 11.7075 61.4774 14.3282 59.5609 16.9489C59.376 17.2017 59.3592 17.3702 59.5357 17.6399C62.6122 22.3251 63.9487 27.4822 63.6293 33.0691C63.478 35.6813 62.9064 38.2093 61.9565 40.6446C61.9061 40.8047 61.8473 40.9564 61.78 41.1502ZM52.0714 12.2974C52.021 12.2384 52.0042 12.2047 51.9874 12.1963C51.8949 12.1289 51.8108 12.0615 51.71 12.0025C46.1874 8.3453 40.1605 7.14029 33.6965 8.52226C21.9201 11.0418 14.044 22.0049 15.3216 34.0129C15.9184 39.6418 18.3225 44.4197 22.332 48.3971C22.5085 48.5657 22.643 48.5741 22.8784 48.5151C23.7442 48.296 24.6184 47.9758 25.4925 47.9674C33.167 47.9252 40.8498 47.9337 48.5242 47.9505C49.928 47.9505 51.0207 48.5994 51.794 49.7707C51.8613 49.8718 51.9285 49.9729 52.0126 50.0909C52.1303 49.9813 52.2227 49.8971 52.3152 49.8128C54.425 47.6977 56.5348 45.5826 58.6363 43.4591C58.838 43.2569 59.0313 43.0209 59.1658 42.7597C63.251 34.7797 63.0661 26.9092 58.569 19.1483C58.4934 19.0219 58.4009 18.9039 58.2832 18.7269C51.8225 27.6253 45.4025 36.4746 38.9511 45.3473C38.7957 45.5611 38.4745 45.5668 38.3281 45.3467V45.3467C35.6467 41.4873 32.9652 37.6279 30.2838 33.7685C27.9302 30.381 25.5766 26.9935 23.223 23.6059C22.0126 21.8616 22.1135 19.6117 23.4584 18.0696C25.3581 15.9124 28.7287 16.1062 30.4015 18.5078C33.1081 22.3841 35.798 26.2688 38.4962 30.1535C38.5802 30.2714 38.6727 30.3894 38.7904 30.5579C43.2454 24.4486 47.65 18.3814 52.0714 12.2974ZM26.4256 64.4667C27.056 63.9527 27.6696 63.4808 28.2496 62.9836C28.5354 62.7393 28.8212 62.6381 29.1995 62.6381C34.9826 62.6466 40.7741 62.6381 46.5573 62.655C47.7509 62.655 48.7175 62.259 49.5581 61.4079C52.5337 58.3911 55.5346 55.4081 58.527 52.4082C60.4015 50.5291 62.276 48.6583 64.142 46.7708C65.1003 45.8017 65.1171 44.3271 64.2177 43.4338C63.2762 42.4985 61.8893 42.549 60.889 43.5518C58.1572 46.2905 55.4169 49.0291 52.6934 51.7762C52.5673 51.9026 52.4329 52.088 52.4076 52.2565C52.0462 54.4896 50.5164 55.821 48.272 55.821C43.6237 55.821 38.9669 55.821 34.3185 55.821C34.1925 55.821 34.0664 55.8294 33.9403 55.8126C33.4696 55.7452 33.1754 55.3575 33.2342 54.8772C33.2931 54.4137 33.6209 54.1778 34.2177 54.1778C37.7229 54.1778 41.2196 54.1778 44.7248 54.1778C46.0025 54.1778 47.2718 54.1947 48.5494 54.1694C49.7935 54.1525 50.7769 53.116 50.7685 51.8858C50.7601 50.5628 49.7598 49.5937 48.3897 49.5937C40.9507 49.5937 33.5116 49.6021 26.0725 49.5769C24.6015 49.5684 23.2903 49.9813 22.0714 50.765C20.2642 51.9363 18.8688 53.5121 17.608 55.2396C17.4567 55.4502 17.5491 55.5598 17.692 55.6946C18.5158 56.512 19.3396 57.3378 20.1633 58.1636C22.2311 60.2534 24.3073 62.3432 26.4256 64.4667ZM38.7652 33.3977C38.6643 33.2629 38.5887 33.1618 38.5214 33.0606C37.0336 30.9203 35.5458 28.7799 34.058 26.6311C32.3936 24.2379 30.7293 21.8364 29.065 19.4432C28.3841 18.4657 27.2577 18.0191 26.165 18.2803C24.1729 18.7522 23.3995 20.9684 24.6099 22.7127C28.7287 28.6451 32.8475 34.5774 36.9748 40.5098C37.5211 41.3019 38.0759 42.094 38.6559 42.9282C38.7904 42.7513 38.8913 42.6249 38.9837 42.4901C45.4057 33.6589 51.8277 24.8278 58.2496 15.9883C60.1493 13.376 62.0406 10.7637 63.9403 8.15992C64.6548 7.18243 64.7809 6.14595 64.2009 5.07577C63.2006 3.24718 60.7461 3.15449 59.4853 4.89881C52.9372 13.9069 46.3976 22.915 39.8495 31.923C39.4965 32.4118 39.1434 32.8921 38.7652 33.3977ZM13.3967 55.13C12.4133 55.1216 11.5979 55.4418 10.8666 56.1665C10.2278 56.7901 9.59734 57.4305 8.96692 58.0709C8.52982 58.5175 8.52982 58.8967 8.97532 59.3433C13.5228 63.9021 18.0703 68.461 22.6178 73.0198C23.0549 73.458 23.45 73.458 23.8871 73.0198C24.5343 72.3793 25.1815 71.7305 25.8204 71.0816C27.1653 69.7165 27.1821 67.5509 25.8288 66.1858C22.4917 62.8235 19.1378 59.4697 15.7839 56.1159C15.1283 55.4671 14.3214 55.1469 13.3967 55.13Z" fill="#FE8647" stroke="#FE8647"/>
</svg>
