<svg width="32" height="32" viewBox="0 0 32 32" fill="none" xmlns="http://www.w3.org/2000/svg">
<path d="M22.4609 28C19.258 27.2889 16.7335 25.3111 14.2424 23.3667C10.2389 20.2556 7.11388 16.3889 4.78959 11.8889C4.4226 11.1667 4.25578 10.3333 4 9.55556C4 9.14444 4 8.74444 4 8.33333C4.0556 8.1 4.10009 7.86667 4.16681 7.64444C4.82295 5.27778 6.25756 3.66667 8.67082 3C8.9266 3 9.19351 3 9.44929 3C9.87189 3.33333 10.3612 3.61111 10.6948 4.02222C11.9515 5.56667 13.1637 7.16667 14.387 8.73333C14.9653 9.46667 14.9319 10.3 14.2647 10.9778C13.8643 11.3889 13.4417 11.7778 13.0414 12.1889C12.5187 12.7333 12.5298 13.3111 13.0302 13.8556C14.1423 15.0667 15.2211 16.3111 16.3665 17.4778C16.9448 18.0667 17.6343 18.5556 18.2905 19.0556C18.7687 19.4222 19.2914 19.3778 19.7473 18.9444C20.1477 18.5667 20.5369 18.1667 20.9262 17.7667C21.6601 17.0444 22.5053 17 23.3061 17.6222C24.863 18.8444 26.4422 20.0333 27.9769 21.2778C28.3883 21.6111 28.6664 22.1 29 22.5222C29 22.7778 29 23.0444 29 23.3C28.6219 24.7889 27.7656 25.9556 26.52 26.8333C25.6303 27.4667 24.6183 27.7778 23.5507 27.9667C23.206 28 22.8278 28 22.4609 28ZM5.12322 8.92222C5.06762 8.94444 5.02313 8.95556 4.96753 8.97778C5.23443 9.78889 5.40125 10.6556 5.79048 11.4111C9.14902 17.8667 14.0979 22.7778 20.5147 26.2C21.6268 26.7889 22.7945 27.0889 24.0512 26.7667C25.9084 26.2889 27.254 25.2111 27.8545 23.3222C27.9657 22.9667 27.9546 22.6333 27.621 22.3667C25.964 21.0889 24.3069 19.8111 22.661 18.5333C22.3163 18.2667 22.0383 18.2889 21.738 18.6C21.3376 19.0111 20.9373 19.4333 20.5147 19.8111C19.714 20.5333 18.5129 20.5667 17.6455 19.9333C15.5436 18.3889 13.6864 16.6 12.1517 14.4778C11.3955 13.4444 11.4511 12.2778 12.3519 11.3667C12.6855 11.0222 13.0191 10.6667 13.375 10.3556C13.7642 10.0111 13.7531 9.7 13.4417 9.3C12.1851 7.72222 10.9506 6.15556 9.74956 4.56667C9.42705 4.13333 9.0823 4.06667 8.60409 4.18889C6.7024 4.7 5.12322 6.84444 5.12322 8.92222Z" fill="#FE8647" stroke="#FE8647"/>
</svg>
