<svg width="28" height="23" viewBox="0 0 28 23" fill="none" xmlns="http://www.w3.org/2000/svg">
<path d="M22.1316 4.02993C21.633 4.28017 21.1067 4.50261 20.6358 4.78065C16.481 7.42207 12.3261 10.1191 8.11583 12.7049C7.58955 13.0386 6.73088 13.122 6.1215 12.9829C4.45955 12.5937 2.85301 12.0376 1.24646 11.4815C0.775575 11.3147 0.415486 10.8976 0 10.5918C0.387787 10.2025 0.720176 9.61862 1.19106 9.42399C6.62008 7.25524 12.0768 5.16991 17.5335 3.05678C19.9433 2.11143 22.3255 1.16608 24.763 0.276341C25.3447 0.0539054 26.3972 -0.140725 26.6188 0.137319C27.0343 0.665602 27.2282 1.58314 27.0897 2.25045C26.231 6.69915 25.2339 11.1201 24.2921 15.541C23.8766 17.5429 23.4888 19.517 23.0179 21.5189C22.741 22.7145 21.7715 23.2428 20.8574 22.5755C17.4504 20.1843 14.1265 17.6541 10.6365 15.0405C12.7139 13.1498 14.6528 11.3981 16.5918 9.64642C18.5307 7.89474 20.4419 6.14307 22.3809 4.39139C22.2978 4.28017 22.2147 4.14115 22.1316 4.02993Z" fill="#FE8647"/>
</svg>
