<svg width="24" height="24" viewBox="0 0 24 24" fill="none" xmlns="http://www.w3.org/2000/svg">
<path d="M16.6815 6.81968C16.3507 6.99477 16.0016 7.1504 15.6893 7.34494C12.933 9.1931 10.1768 11.0802 7.38383 12.8894C7.0347 13.1229 6.46508 13.1812 6.06084 13.0839C4.95835 12.8116 3.89261 12.4225 2.82687 12.0334C2.5145 11.9167 2.27562 11.6249 2 11.4109C2.25725 11.1385 2.47775 10.73 2.79012 10.5938C6.39159 9.07637 10.0114 7.6173 13.6313 6.13878C15.2299 5.47733 16.8101 4.81589 18.4271 4.19335C18.813 4.03772 19.5112 3.90154 19.6582 4.09608C19.9338 4.46571 20.0625 5.1077 19.9706 5.5746C19.401 8.68728 18.7395 11.7805 18.1147 14.8737C17.8391 16.2744 17.5819 17.6557 17.2695 19.0564C17.0857 19.8929 16.4426 20.2626 15.8363 19.7957C13.5761 18.1226 11.3712 16.3523 9.05594 14.5236C10.434 13.2007 11.7203 11.9751 13.0065 10.7494C14.2928 9.52382 15.5606 8.2982 16.8469 7.07258C16.7917 6.99476 16.7366 6.89749 16.6815 6.81968Z" fill="white"/>
</svg>
