<svg width="40" height="40" viewBox="0 0 40 40" fill="none" xmlns="http://www.w3.org/2000/svg">
<path d="M26.1316 13.0299C25.633 13.2802 25.1067 13.5026 24.6358 13.7807C20.481 16.4221 16.3261 19.1191 12.1158 21.7049C11.5896 22.0386 10.7309 22.122 10.1215 21.9829C8.45955 21.5937 6.85301 21.0376 5.24646 20.4815C4.77557 20.3147 4.41549 19.8976 4 19.5918C4.38779 19.2025 4.72018 18.6186 5.19106 18.424C10.6201 16.2552 16.0768 14.1699 21.5335 12.0568C23.9433 11.1114 26.3255 10.1661 28.763 9.27634C29.3447 9.05391 30.3972 8.85927 30.6188 9.13732C31.0343 9.6656 31.2282 10.5831 31.0897 11.2505C30.231 15.6992 29.2339 20.1201 28.2921 24.541C27.8766 26.5429 27.4888 28.517 27.0179 30.5189C26.741 31.7145 25.7715 32.2428 24.8574 31.5755C21.4504 29.1843 18.1265 26.6541 14.6365 24.0405C16.7139 22.1498 18.6528 20.3981 20.5918 18.6464C22.5307 16.8947 24.4419 15.1431 26.3809 13.3914C26.2978 13.2802 26.2147 13.1412 26.1316 13.0299Z" fill="white"/>
</svg>
