<svg width="21" height="22" viewBox="0 0 21 22" fill="none" xmlns="http://www.w3.org/2000/svg">
<path d="M20.7803 10.2313C20.6901 11.2996 20.636 12.3498 20.5097 13.3999C20.149 16.3694 18.0926 18.5603 15.0262 19.0311C13.2584 19.3027 11.4546 19.357 9.65082 19.4295C9.09163 19.4476 8.6948 19.5743 8.35208 20.0089C7.90112 20.5702 7.43213 21.1134 6.90903 21.6204C6.69257 21.8195 6.31378 22.0187 6.07928 21.9463C5.86282 21.8739 5.57422 21.4393 5.61029 21.2039C5.91694 19.5381 5.1413 18.7414 3.69826 17.9628C1.47958 16.7678 0.776094 14.5045 0.72198 12.1144C0.685904 10.3761 0.703942 8.6198 0.902361 6.88156C1.19097 4.20178 3.15712 2.10141 5.79067 1.50389C9.01948 0.761516 12.2663 0.761516 15.5132 1.48578C18.1828 2.0833 20.1309 4.18367 20.4917 6.89967C20.636 8.00417 20.6721 9.12678 20.7803 10.2313ZM5.91694 21.5479C6.00713 21.6023 6.09732 21.6566 6.18751 21.7109C6.40397 21.5479 6.63846 21.4031 6.81884 21.2039C7.61251 20.3348 8.35208 19.4295 9.18183 18.5966C9.4524 18.325 9.92139 18.1439 10.3182 18.0896C11.8875 17.8904 13.4929 17.8723 15.0622 17.6007C17.2448 17.2386 18.8863 15.5909 19.0486 13.3999C19.211 11.2815 19.229 9.12678 19.0306 7.00831C18.8322 4.90794 17.5334 3.4594 15.4591 2.93431C12.2663 2.11951 9.03752 2.11951 5.82675 2.93431C3.84256 3.4594 2.54382 4.85362 2.3454 6.88156C2.12895 9.01814 2.16502 11.209 2.30933 13.3637C2.43559 15.2468 3.55395 16.5867 5.32168 17.311C5.79067 17.492 5.95301 17.7274 5.93498 18.2344C5.8989 19.3208 5.91694 20.4434 5.91694 21.5479Z" fill="#FE8647"/>
<path d="M13.8359 15.9168C13.3669 15.772 13.0963 15.7177 12.8618 15.609C9.34439 14.1786 6.87318 11.6799 5.44817 8.1491C5.05133 7.15323 5.62855 5.90387 6.67476 5.65038C7.75704 5.37878 7.95546 6.44707 8.44248 7.00838C8.82128 7.44294 9.23616 7.96803 8.73109 8.61987C7.90134 9.68816 7.84723 9.7968 8.65894 10.9013C9.10989 11.5169 9.72319 12.042 10.3365 12.5128C11.0219 13.0379 11.7074 13.3095 12.4109 12.3861C12.8798 11.7704 13.7457 12.1688 15.0624 13.4C15.6036 13.907 15.5495 14.414 15.0805 14.8848C14.6836 15.2831 14.1966 15.609 13.8359 15.9168Z" fill="#FE8647"/>
<path d="M15.1698 10.8649C15.3141 9.39826 15.0616 8.09459 13.9973 7.0444C12.9511 6.01232 11.6704 5.72262 10.1191 5.958C10.8767 4.99835 12.7347 5.28806 14.0514 6.39256C15.5306 7.64192 16.1438 9.83282 15.1698 10.8649Z" fill="#FE8647"/>
<path d="M14.2151 10.4484C13.8544 9.59741 13.692 8.58344 13.0968 7.98592C12.5015 7.3884 11.4914 7.18923 10.6797 6.8271C10.9683 6.41065 11.9063 6.44686 12.8803 7.06249C14.2151 7.89539 14.7924 9.45256 14.2151 10.4484Z" fill="#FE8647"/>
<path d="M10.498 8.23963C11.5623 7.69643 12.3019 7.93182 12.861 8.6923C13.312 9.32603 13.33 9.7787 12.7708 10.3219C12.825 8.89147 12.0313 8.29395 10.498 8.23963Z" fill="#FE8647"/>
</svg>
