<svg width="40" height="40" viewBox="0 0 40 40" fill="none" xmlns="http://www.w3.org/2000/svg">
<path d="M35 18.7421C34.8652 20.3387 34.7843 21.9083 34.5956 23.4778C34.0565 27.9158 30.9832 31.1901 26.4003 31.8937C23.7584 32.2996 21.0625 32.3808 18.3667 32.489C17.531 32.5161 16.9379 32.7055 16.4257 33.355C15.7518 34.1939 15.0508 35.0057 14.269 35.7634C13.9455 36.0611 13.3794 36.3587 13.029 36.2505C12.7055 36.1422 12.2741 35.4928 12.328 35.141C12.7863 32.6514 11.6271 31.4607 9.47047 30.2971C6.15459 28.5111 5.10322 25.1285 5.02234 21.5565C4.96842 18.9586 4.99538 16.3337 5.29192 13.7359C5.72326 9.73088 8.66172 6.59182 12.5976 5.69882C17.4232 4.58932 22.2757 4.58932 27.1282 5.67175C31.118 6.56476 34.0295 9.70382 34.5687 13.7629C34.7843 15.4137 34.8383 17.0914 35 18.7421ZM12.7863 35.6552C12.9211 35.7363 13.0559 35.8175 13.1907 35.8987C13.5142 35.6552 13.8647 35.4387 14.1343 35.141C15.3204 33.8421 16.4257 32.489 17.6658 31.2442C18.0702 30.8383 18.7711 30.5677 19.3642 30.4865C21.7095 30.1889 24.1088 30.1618 26.4542 29.7559C29.7162 29.2147 32.1694 26.7521 32.412 23.4778C32.6546 20.3117 32.6816 17.0914 32.385 13.9253C32.0885 10.7863 30.1475 8.62138 27.0473 7.83662C22.2757 6.61888 17.4501 6.61888 12.6515 7.83662C9.68613 8.62138 7.74513 10.7051 7.44859 13.7359C7.12509 16.9291 7.17901 20.2034 7.39467 23.4237C7.58338 26.238 9.2548 28.2405 11.8967 29.3229C12.5976 29.5935 12.8403 29.9453 12.8133 30.703C12.7594 32.3267 12.7863 34.0044 12.7863 35.6552Z" fill="white"/>
<path d="M24.6203 27.2395C23.9194 27.023 23.515 26.9418 23.1645 26.7794C17.9076 24.6416 14.2144 20.9072 12.0847 15.6304C11.4916 14.142 12.3542 12.2748 13.9178 11.896C15.5353 11.4901 15.8319 13.0867 16.5597 13.9256C17.1259 14.575 17.7459 15.3598 16.9911 16.334C15.751 17.9306 15.6701 18.0929 16.8832 19.7436C17.5572 20.6637 18.4738 21.4485 19.3904 22.152C20.4148 22.9368 21.4392 23.3427 22.4906 21.9626C23.1915 21.0426 24.4855 21.6379 26.4534 23.478C27.2622 24.2357 27.1813 24.9934 26.4804 25.697C25.8873 26.2924 25.1594 26.7794 24.6203 27.2395Z" fill="white"/>
<path d="M26.6147 19.6891C26.8304 17.4971 26.453 15.5488 24.8624 13.9792C23.2989 12.4368 21.3848 12.0038 19.0664 12.3556C20.1987 10.9214 22.9754 11.3543 24.9433 13.005C27.1539 14.8722 28.0705 18.1466 26.6147 19.6891Z" fill="white"/>
<path d="M25.1862 19.0667C24.647 17.7948 24.4044 16.2794 23.5148 15.3864C22.6251 14.4934 21.1155 14.1958 19.9023 13.6545C20.3337 13.0321 21.7355 13.0863 23.1913 14.0063C25.1862 15.2511 26.0488 17.5784 25.1862 19.0667Z" fill="white"/>
<path d="M19.6328 15.7654C21.2234 14.9536 22.3286 15.3054 23.1644 16.4419C23.8383 17.3891 23.8653 18.0656 23.0296 18.8774C23.1104 16.7396 21.9243 15.8466 19.6328 15.7654Z" fill="white"/>
</svg>
