<svg width="30" height="33" viewBox="0 0 30 33" fill="none" xmlns="http://www.w3.org/2000/svg">
<path d="M30 14.7421C29.8652 16.3387 29.7843 17.9083 29.5956 19.4778C29.0565 23.9158 25.9832 27.1901 21.4003 27.8937C18.7584 28.2996 16.0625 28.3808 13.3667 28.489C12.531 28.5161 11.9379 28.7055 11.4257 29.355C10.7518 30.1939 10.0508 31.0057 9.26905 31.7634C8.94555 32.0611 8.37942 32.3587 8.02896 32.2505C7.70547 32.1422 7.27413 31.4928 7.32805 31.141C7.78634 28.6514 6.62713 27.4607 4.47047 26.2971C1.15459 24.5111 0.103216 21.1285 0.0223414 17.5565C-0.0315752 14.9586 -0.00461691 12.3337 0.291925 9.73588C0.723258 5.73088 3.66172 2.59182 7.59763 1.69882C12.4232 0.589322 17.2757 0.589322 22.1282 1.67175C26.118 2.56476 29.0295 5.70382 29.5687 9.76294C29.7843 11.4137 29.8383 13.0914 30 14.7421ZM7.78634 31.6552C7.92113 31.7363 8.05592 31.8175 8.19071 31.8987C8.51421 31.6552 8.86467 31.4387 9.13426 31.141C10.3204 29.8421 11.4257 28.489 12.6658 27.2442C13.0702 26.8383 13.7711 26.5677 14.3642 26.4865C16.7095 26.1889 19.1088 26.1618 21.4542 25.7559C24.7162 25.2147 27.1694 22.7521 27.412 19.4778C27.6546 16.3117 27.6816 13.0914 27.385 9.92531C27.0885 6.78625 25.1475 4.62139 22.0473 3.83662C17.2757 2.61888 12.4501 2.61888 7.65155 3.83662C4.68613 4.62139 2.74513 6.70507 2.44859 9.73588C2.12509 12.9291 2.17901 16.2034 2.39467 19.4237C2.58338 22.238 4.2548 24.2405 6.89672 25.3229C7.59763 25.5935 7.84026 25.9453 7.8133 26.703C7.75938 28.3267 7.78634 30.0044 7.78634 31.6552Z" fill="#FE8647"/>
<path d="M19.6203 23.2395C18.9194 23.023 18.515 22.9418 18.1645 22.7794C12.9076 20.6416 9.21436 16.9072 7.08465 11.6304C6.49157 10.142 7.35423 8.27484 8.91782 7.89599C10.5353 7.49008 10.8319 9.08667 11.5597 9.92555C12.1259 10.575 12.7459 11.3598 11.9911 12.334C10.751 13.9306 10.6701 14.0929 11.8832 15.7436C12.5572 16.6637 13.4738 17.4485 14.3904 18.152C15.4148 18.9368 16.4392 19.3427 17.4906 17.9626C18.1915 17.0426 19.4855 17.6379 21.4534 19.478C22.2622 20.2357 22.1813 20.9934 21.4804 21.697C20.8873 22.2924 20.1594 22.7794 19.6203 23.2395Z" fill="#FE8647"/>
<path d="M21.6147 15.6891C21.8304 13.4971 21.453 11.5488 19.8624 9.97923C18.2989 8.43676 16.3848 8.00379 14.0664 8.35558C15.1987 6.92136 17.9754 7.35433 19.9433 9.00504C22.1539 10.8722 23.0705 14.1466 21.6147 15.6891Z" fill="#FE8647"/>
<path d="M20.1862 15.0667C19.647 13.7948 19.4044 12.2794 18.5148 11.3864C17.6251 10.4934 16.1155 10.1958 14.9023 9.65454C15.3337 9.03214 16.7355 9.08626 18.1913 10.0063C20.1862 11.2511 21.0488 13.5784 20.1862 15.0667Z" fill="#FE8647"/>
<path d="M14.6328 11.7654C16.2234 10.9536 17.3286 11.3054 18.1644 12.4419C18.8383 13.3891 18.8653 14.0656 18.0296 14.8774C18.1104 12.7396 16.9243 11.8466 14.6328 11.7654Z" fill="#FE8647"/>
</svg>
