<svg width="30" height="30" viewBox="0 0 30 30" fill="none" xmlns="http://www.w3.org/2000/svg">
<path d="M0.186928 29.8413C0.424393 28.9176 0.543123 28.3515 0.750905 27.7854C1.70076 24.8952 1.93823 22.2731 0.839955 19.1148C-1.14881 13.5131 0.483759 8.26905 4.7878 4.18701C9.15121 0.0453755 14.4051 -1.05708 20.0449 1.02864C25.6847 3.11435 28.9795 7.31558 29.6622 13.3344C30.9979 24.7462 19.4809 33.2082 8.94343 28.6793C8.17167 28.3515 7.13277 28.3217 6.27196 28.4707C4.31287 28.7984 2.38348 29.3348 0.186928 29.8413ZM3.95668 26.4148C4.52066 26.2956 5.144 26.236 5.73766 26.0274C7.19213 25.5209 8.49819 25.5507 9.95266 26.3552C12.2383 27.6066 14.791 27.7258 17.3141 27.2192C24.2005 25.8784 28.6233 19.0552 27.0501 12.2617C25.4472 5.28946 18.5904 1.11803 11.7633 2.90578C5.05495 4.66374 0.89932 11.8148 3.12555 18.489C4.01604 21.1111 4.9659 23.4948 3.80826 26.2062C3.77858 26.236 3.86763 26.2956 3.95668 26.4148Z" fill="#FE8647"/>
<path d="M19.2149 22.3926C17.7901 21.886 16.6621 21.6179 15.6826 21.0815C12.6549 19.413 10.1022 17.1783 8.20245 14.2285C7.25259 12.7685 6.92607 11.2191 7.7572 9.58031C8.38054 8.35867 9.38977 8.1501 10.399 9.10357C10.9036 9.5803 11.2895 10.1464 11.7644 10.6828C12.5065 11.517 12.6846 12.3215 11.616 13.0366C10.9333 13.4836 10.9927 14.0199 11.3785 14.7052C12.3581 16.4632 13.7235 17.7146 15.6232 18.4595C16.3653 18.7575 16.9293 18.7873 17.3448 17.953C17.8494 16.8803 18.6212 16.8803 19.5117 17.4762C19.7492 17.655 20.046 17.7444 20.2835 17.9232C21.1739 18.5191 22.5394 19.1448 21.916 20.3366C21.4114 21.2305 20.1054 21.7371 19.2149 22.3926Z" fill="#FE8647"/>
</svg>
