<svg width="40" height="40" viewBox="0 0 40 40" fill="none" xmlns="http://www.w3.org/2000/svg">
<path d="M5.18693 33.8413C5.42439 32.9176 5.54312 32.3515 5.7509 31.7854C6.70076 28.8952 6.93823 26.2731 5.83995 23.1148C3.85119 17.5131 5.48376 12.269 9.7878 8.18701C14.1512 4.04538 19.4051 2.94292 25.0449 5.02864C30.6847 7.11435 33.9795 11.3156 34.6622 17.3344C35.9979 28.7462 24.4809 37.2082 13.9434 32.6793C13.1717 32.3515 12.1328 32.3217 11.272 32.4707C9.31287 32.7984 7.38348 33.3348 5.18693 33.8413ZM8.95668 30.4148C9.52066 30.2956 10.144 30.236 10.7377 30.0274C12.1921 29.5209 13.4982 29.5507 14.9527 30.3552C17.2383 31.6066 19.791 31.7258 22.3141 31.2192C29.2005 29.8784 33.6233 23.0552 32.0501 16.2617C30.4472 9.28946 23.5904 5.11803 16.7633 6.90578C10.055 8.66374 5.89932 15.8148 8.12555 22.489C9.01604 25.1111 9.9659 27.4948 8.80826 30.2062C8.77858 30.236 8.86763 30.2956 8.95668 30.4148Z" fill="white"/>
<path d="M24.2149 26.3926C22.7901 25.886 21.6621 25.6179 20.6826 25.0815C17.6549 23.413 15.1022 21.1783 13.2024 18.2285C12.2526 16.7685 11.9261 15.2191 12.7572 13.5803C13.3805 12.3587 14.3898 12.1501 15.399 13.1036C15.9036 13.5803 16.2895 14.1464 16.7644 14.6828C17.5065 15.517 17.6846 16.3215 16.616 17.0366C15.9333 17.4836 15.9927 18.0199 16.3785 18.7052C17.3581 20.4632 18.7235 21.7146 20.6232 22.4595C21.3653 22.7575 21.9293 22.7873 22.3448 21.953C22.8494 20.8803 23.6212 20.8803 24.5117 21.4762C24.7492 21.655 25.046 21.7444 25.2835 21.9232C26.1739 22.5191 27.5394 23.1448 26.916 24.3366C26.4114 25.2305 25.1054 25.7371 24.2149 26.3926Z" fill="white"/>
</svg>
