<svg width="24" height="24" viewBox="0 0 24 24" fill="none" xmlns="http://www.w3.org/2000/svg">
<path d="M2.0157 21.3347C2.17459 20.7167 2.25403 20.3379 2.39306 19.9591C3.02862 18.0253 3.18751 16.2708 2.45265 14.1575C1.12195 10.4094 2.21431 6.90057 5.09419 4.16924C8.01378 1.39804 11.5292 0.660377 15.3028 2.05595C19.0765 3.45152 21.2811 6.2626 21.7379 10.2898C22.6316 17.9256 14.9255 23.5876 7.87475 20.5572C7.35836 20.3379 6.66322 20.318 6.08725 20.4177C4.77641 20.637 3.48543 20.9958 2.0157 21.3347ZM4.53807 19.042C4.91543 18.9623 5.33252 18.9224 5.72974 18.7828C6.70294 18.4439 7.57683 18.4639 8.55003 19.0021C10.0793 19.8395 11.7874 19.9192 13.4756 19.5803C18.0834 18.6832 21.0427 14.1177 19.9901 9.57209C18.9176 4.9069 14.3296 2.11576 9.76157 3.31196C5.27294 4.48823 2.49237 9.27304 3.98196 13.7389C4.57779 15.4933 5.21335 17.0882 4.43877 18.9025C4.4189 18.9224 4.47849 18.9623 4.53807 19.042Z" fill="#FE8647"/>
<path d="M14.7466 16.3509C13.7933 16.012 13.0385 15.8325 12.3831 15.4737C10.3573 14.3572 8.64922 12.862 7.3781 10.8882C6.74254 9.91132 6.52407 8.87461 7.08018 7.77808C7.49727 6.96068 8.17255 6.82112 8.84783 7.4591C9.18547 7.77808 9.44366 8.15688 9.76144 8.51574C10.258 9.07397 10.3771 9.61227 9.66214 10.0907C9.20533 10.3898 9.24505 10.7487 9.50325 11.2072C10.1587 12.3835 11.0723 13.2208 12.3434 13.7192C12.8399 13.9186 13.2173 13.9385 13.4953 13.3803C13.833 12.6626 14.3494 12.6626 14.9452 13.0613C15.1041 13.1809 15.3027 13.2408 15.4616 13.3604C16.0574 13.7591 16.9711 14.1778 16.554 14.9752C16.2163 15.5733 15.3424 15.9123 14.7466 16.3509Z" fill="#FE8647"/>
</svg>
