<svg width="120" height="120" viewBox="0 0 120 120" fill="none" xmlns="http://www.w3.org/2000/svg">
<path d="M68.7006 31.7272C68.7006 34.375 68.7006 36.8904 68.7006 39.5602C70.9498 39.6926 73.1769 39.8471 75.4039 39.9795C80.4976 40.2884 85.5912 40.5752 90.6849 40.8621C91.5228 40.9062 92.1843 41.2592 92.1402 42.1639C92.0961 43.0465 91.4346 43.4216 90.5967 43.3774C85.3487 43.0685 80.1227 42.7596 74.8747 42.4507C73.1548 42.3404 71.4349 42.2521 69.7149 42.1198C68.9211 42.0536 68.5904 42.2742 68.6124 43.1347C68.6345 44.3262 68.2155 44.7675 67.0468 44.7455C66.3192 44.7234 65.8561 44.9882 65.5033 45.5619C64.2685 47.5698 63.7834 49.7321 64.5551 51.9827C64.8418 52.8212 65.5033 53.6597 66.2089 54.2334C67.9068 55.6014 68.8329 57.2342 68.6345 59.4848C68.5463 60.3895 68.6345 61.3162 68.6345 62.2429C68.6124 64.2949 67.6202 65.4423 65.5695 65.4644C60.8948 65.5085 56.2421 65.5085 51.5674 65.4644C49.3845 65.4423 48.4142 64.317 48.4142 62.1105C48.4142 61.0735 48.4583 60.0585 48.4142 59.0214C48.326 57.168 48.9655 55.6234 50.4649 54.6305C53.9048 52.3358 53.0448 47.6801 51.391 45.3853C51.1485 45.0544 50.5531 44.8558 50.1121 44.8117C48.8773 44.7013 48.4363 44.3704 48.4363 43.1347C48.4363 38.1701 48.4363 33.2055 48.4142 28.241C48.4142 27.3363 48.7009 26.6523 49.6491 26.6302C50.6193 26.6082 50.928 27.3804 50.928 28.241C50.95 31.5066 50.928 34.7942 50.928 38.0598C50.928 39.4058 50.928 40.7517 50.928 42.1859C56.0216 42.1859 61.005 42.1859 66.1207 42.1859C66.1207 41.7005 66.1207 41.2813 66.1207 40.8621C66.1207 36.8242 66.1207 32.7643 66.1207 28.7264C66.1207 28.3954 66.0105 27.9762 66.1869 27.7555C66.5397 27.3142 67.0468 26.6744 67.4437 26.6964C67.8627 26.7185 68.3258 27.4025 68.5904 27.8879C68.7668 28.1968 68.6124 28.6602 68.6124 29.1677C69.4503 29.1677 70.1559 29.2118 70.8836 29.1677C77.4546 28.7926 84.0036 28.3954 90.5746 27.9982C91.4346 27.9541 92.0961 28.263 92.1402 29.1456C92.1843 30.0061 91.5669 30.4254 90.7069 30.4695C85.7676 30.7564 80.8063 31.0432 75.867 31.33C73.5297 31.4183 71.1923 31.5727 68.7006 31.7272ZM63.0116 44.7896C59.9466 44.7896 57.1021 44.7896 54.1914 44.7896C54.2576 45.0764 54.2796 45.2971 54.3679 45.4957C56.2642 50.1514 55.6027 53.1742 51.9644 56.5722C51.5674 56.9253 51.0823 57.4328 51.0603 57.8961C50.95 59.5289 51.0162 61.1617 51.0162 62.949C51.5454 62.949 51.9644 62.949 52.4054 62.949C56.198 62.949 59.9687 62.949 63.7613 62.949C66.2089 62.949 66.1207 62.949 66.231 60.4998C66.3192 58.4919 65.9002 56.9032 64.1582 55.6455C62.6588 54.5864 62.0414 52.9095 61.865 51.056C61.6445 48.9157 61.9752 46.9078 63.0116 44.7896Z" fill="#FE8647" stroke="#FE8647" stroke-width="0.5"/>
<path d="M58.5803 75.7025C67.7312 75.7025 76.8822 75.7025 86.011 75.7025C89.9581 75.7025 92.1851 77.9531 92.2072 81.9469C92.2072 83.9327 92.2072 83.5348 92.2072 85.5206C92.1851 89.1613 89.8258 91.5443 86.2095 91.5443C79.8149 91.5443 73.4202 91.5443 67.0256 91.5443C55.0081 91.5443 42.9907 91.5443 30.9952 91.5443C27.1805 91.5222 24.8652 89.2275 24.8652 85.4323C24.8652 83.3362 24.8652 83.6238 24.8652 81.5276C24.8873 78.0635 27.2246 75.7025 30.6865 75.7025C39.9918 75.7025 49.275 75.7025 58.5803 75.7025ZM58.5362 89.0289C67.7974 89.0289 77.0586 89.0289 86.2977 89.0289C88.4586 89.0289 89.6493 87.8374 89.6714 85.7192C89.6934 83.8437 89.6052 84.3519 89.6934 82.4764C89.8699 79.1888 88.3925 78.0193 85.3495 78.1738C85.2393 78.1738 85.129 78.1738 85.0188 78.1738C67.5769 78.1738 50.113 78.1738 32.6711 78.1738C31.9434 78.1738 31.1937 78.1958 30.466 78.2179C28.5036 78.3062 27.379 79.4977 27.3569 81.4614C27.3349 83.4914 27.3569 83.1155 27.3569 85.1455C27.3569 87.9698 28.3713 89.0068 31.1937 89.0068C40.3226 89.0289 49.4294 89.0289 58.5362 89.0289Z" fill="#FE8647" stroke="#FE8647" stroke-width="0.5"/>
<path d="M58.5141 69.3257C67.9075 69.3257 77.3231 69.3257 86.7165 69.3257C87.0473 69.3257 87.4662 69.2154 87.6867 69.3698C88.0837 69.6567 88.5908 70.0759 88.657 70.4951C88.7011 70.8482 88.2821 71.4219 87.9073 71.6425C87.5324 71.8632 86.9811 71.819 86.5181 71.819C67.7532 71.819 48.9883 71.819 30.2234 71.819C29.8926 71.819 29.4737 71.8852 29.2752 71.7087C28.9003 71.3998 28.3711 70.8702 28.4373 70.5172C28.5034 70.0759 29.0326 69.5905 29.4737 69.3478C29.8044 69.1713 30.3336 69.3036 30.7746 69.3036C40.0138 69.3257 49.2749 69.3257 58.5141 69.3257Z" fill="#FE8647" stroke="#FE8647" stroke-width="0.5"/>
<path d="M34.2582 57.521C34.6551 57.6534 34.8756 57.6975 35.0521 57.8078C37.8745 59.5951 40.697 61.3603 43.4753 63.1696C44.1589 63.6109 44.3573 64.3611 43.7399 64.9348C43.4312 65.2216 42.6374 65.4423 42.3287 65.2437C39.418 63.5006 36.5515 61.6692 33.707 59.7937C33.3983 59.5951 33.1998 58.867 33.3101 58.4698C33.3983 58.0726 33.9495 57.8078 34.2582 57.521Z" fill="#FE8647" stroke="#FE8647" stroke-width="0.5"/>
<path d="M83.872 59.1097C83.7176 59.2862 83.5192 59.7275 83.1443 59.9703C80.4321 61.7354 77.6979 63.4565 74.9857 65.1776C74.3242 65.5968 73.6847 65.5306 73.2437 64.8907C72.7586 64.1846 73.0011 63.5448 73.6626 63.1035C76.4189 61.3383 79.1532 59.5731 81.9315 57.852C82.8356 57.2783 83.8279 57.83 83.872 59.1097Z" fill="#FE8647" stroke="#FE8647" stroke-width="0.5"/>
</svg>
