<svg width="120" height="120" viewBox="0 0 120 120" fill="none" xmlns="http://www.w3.org/2000/svg">
<mask id="path-1-inside-1_167_62" fill="white">
<path d="M29.4788 79.9855C30.4952 80.4837 31.8444 80.8324 32.5995 81.1811C41.8056 85.5648 51.0407 89.9485 60.2468 94.3322C60.8857 94.6311 61.4085 94.9051 62.2217 94.4568C71.1954 89.5749 80.8504 84.7179 89.8532 79.861C89.9984 79.7863 90.1436 79.6617 90.4921 79.4376C88.8658 78.8896 86.7325 78.3665 85.2514 77.8684C84.6706 77.6691 84.0607 77.5197 83.509 77.2706C82.6668 76.897 82.2155 75.9444 82.7673 75.2968C83.1158 74.8734 83.702 74.5149 84.6125 74.7799C87.8652 75.7263 91.0597 76.7974 94.2252 77.9182C95.6482 78.4413 95.5321 79.7364 94.051 80.5335C90.1594 82.6506 86.2679 84.7179 82.3763 86.8102C75.9001 90.2972 69.4239 93.7593 62.9767 97.2713C61.9022 97.8691 61.0019 97.8691 59.8983 97.346C48.6593 91.966 37.3913 86.6607 26.1813 81.2558C25.5424 80.9569 24.8164 80.1848 24.8164 79.6368C24.8164 79.1885 25.7167 78.5409 26.3846 78.2918C29.5211 77.1212 32.7447 76.0501 35.9102 74.9293C36.9557 74.5557 37.914 74.481 38.5239 75.4773C39.0176 76.2992 38.4949 77.0464 37.1009 77.5197C34.8938 78.3167 32.0344 79.1138 29.4788 79.9855Z"/>
</mask>
<path d="M29.4788 79.9855C30.4952 80.4837 31.8444 80.8324 32.5995 81.1811C41.8056 85.5648 51.0407 89.9485 60.2468 94.3322C60.8857 94.6311 61.4085 94.9051 62.2217 94.4568C71.1954 89.5749 80.8504 84.7179 89.8532 79.861C89.9984 79.7863 90.1436 79.6617 90.4921 79.4376C88.8658 78.8896 86.7325 78.3665 85.2514 77.8684C84.6706 77.6691 84.0607 77.5197 83.509 77.2706C82.6668 76.897 82.2155 75.9444 82.7673 75.2968C83.1158 74.8734 83.702 74.5149 84.6125 74.7799C87.8652 75.7263 91.0597 76.7974 94.2252 77.9182C95.6482 78.4413 95.5321 79.7364 94.051 80.5335C90.1594 82.6506 86.2679 84.7179 82.3763 86.8102C75.9001 90.2972 69.4239 93.7593 62.9767 97.2713C61.9022 97.8691 61.0019 97.8691 59.8983 97.346C48.6593 91.966 37.3913 86.6607 26.1813 81.2558C25.5424 80.9569 24.8164 80.1848 24.8164 79.6368C24.8164 79.1885 25.7167 78.5409 26.3846 78.2918C29.5211 77.1212 32.7447 76.0501 35.9102 74.9293C36.9557 74.5557 37.914 74.481 38.5239 75.4773C39.0176 76.2992 38.4949 77.0464 37.1009 77.5197C34.8938 78.3167 32.0344 79.1138 29.4788 79.9855Z" fill="#FE8647"/>
<path d="M29.4788 79.9855L29.156 79.0391L26.8679 79.8196L29.0387 80.8835L29.4788 79.9855ZM32.5995 81.1811L33.0294 80.2781L33.0188 80.2732L32.5995 81.1811ZM60.2468 94.3322L59.8169 95.2351L59.8231 95.238L60.2468 94.3322ZM62.2217 94.4568L61.7438 93.5783L61.7388 93.581L62.2217 94.4568ZM89.8532 79.861L89.3957 78.9718L89.387 78.9763L89.3784 78.9809L89.8532 79.861ZM90.4921 79.4376L91.0331 80.2786L92.7818 79.1538L90.8114 78.4899L90.4921 79.4376ZM85.2514 77.8684L84.9269 78.8143L84.9326 78.8162L85.2514 77.8684ZM83.509 77.2706L83.9204 76.3591L83.9145 76.3565L83.509 77.2706ZM82.7673 75.2968L83.5285 75.9454L83.534 75.9389L83.5394 75.9323L82.7673 75.2968ZM84.6125 74.7799L84.3331 75.74L84.6125 74.7799ZM94.2252 77.9182L94.5702 76.9795L94.559 76.9755L94.2252 77.9182ZM94.051 80.5335L93.5771 79.6529L93.5731 79.6551L94.051 80.5335ZM82.3763 86.8102L81.9028 85.9294L81.9023 85.9297L82.3763 86.8102ZM62.9767 97.2713L62.4984 96.3931L62.4906 96.3974L62.9767 97.2713ZM59.8983 97.346L59.4666 98.248L59.47 98.2497L59.8983 97.346ZM26.1813 81.2558L26.6157 80.355L26.6051 80.35L26.1813 81.2558ZM26.3846 78.2918L26.734 79.2288L26.7343 79.2287L26.3846 78.2918ZM35.9102 74.9293L36.244 75.872L36.2467 75.871L35.9102 74.9293ZM38.5239 75.4773L39.3812 74.9623L39.3768 74.9552L38.5239 75.4773ZM37.1009 77.5197L36.7794 76.5728L36.7703 76.5759L36.7612 76.5791L37.1009 77.5197ZM29.0387 80.8835C29.609 81.163 30.2545 81.3924 30.8106 81.5845C31.4017 81.7887 31.8612 81.9416 32.1802 82.0889L33.0188 80.2732C32.5827 80.0718 31.9901 79.876 31.4637 79.6942C30.9024 79.5002 30.365 79.3062 29.9189 79.0876L29.0387 80.8835ZM32.1696 82.0839C36.7729 84.276 41.3835 86.4679 45.9938 88.6598C50.6041 90.8517 55.2142 93.0434 59.8169 95.2351L60.6768 93.4293C56.0734 91.2373 51.4628 89.0454 46.8525 86.8535C42.2422 84.6616 37.6321 82.4699 33.0294 80.2782L32.1696 82.0839ZM59.8231 95.238C60.0958 95.3656 60.5293 95.5853 61.0113 95.6622C61.562 95.7501 62.1199 95.6548 62.7045 95.3325L61.7388 93.581C61.5102 93.7071 61.4002 93.6989 61.3265 93.6872C61.1841 93.6645 61.0367 93.5977 60.6706 93.4264L59.8231 95.238ZM62.6995 95.3352C67.1777 92.899 71.8276 90.4681 76.4891 88.0361C81.148 85.6055 85.8192 83.1735 90.328 80.7411L89.3784 78.9809C84.8844 81.4054 80.2268 83.8303 75.564 86.2629C70.9039 88.6942 66.2394 91.1327 61.7438 93.5783L62.6995 95.3352ZM90.3108 80.7502C90.4537 80.6766 90.5814 80.5864 90.6693 80.525C90.7689 80.4554 90.8773 80.3788 91.0331 80.2786L89.9512 78.5965C89.7585 78.7205 89.6201 78.8182 89.5236 78.8856C89.4738 78.9204 89.4438 78.9411 89.4199 78.9566C89.3978 78.971 89.3921 78.9736 89.3957 78.9718L90.3108 80.7502ZM90.8114 78.4899C89.9711 78.2068 89.0071 77.9324 88.0903 77.6723C87.1603 77.4084 86.283 77.1603 85.5702 76.9206L84.9326 78.8162C85.701 79.0746 86.6309 79.3371 87.5444 79.5963C88.4711 79.8592 89.3868 80.1204 90.1728 80.3852L90.8114 78.4899ZM85.5759 76.9225C84.8712 76.6807 84.4221 76.5856 83.9204 76.3592L83.0975 78.1821C83.6994 78.4537 84.47 78.6575 84.9269 78.8143L85.5759 76.9225ZM83.9145 76.3565C83.7086 76.2652 83.5845 76.1148 83.5414 76.009C83.5219 75.9611 83.5254 75.94 83.525 75.9439C83.5238 75.9541 83.5181 75.9576 83.5285 75.9454L82.0061 74.6483C81.4479 75.3035 81.4242 76.1134 81.6894 76.7639C81.9445 77.3897 82.4671 77.9024 83.1035 78.1847L83.9145 76.3565ZM83.5394 75.9323C83.6287 75.8238 83.7221 75.7556 83.8179 75.7211C83.9031 75.6904 84.0594 75.6604 84.3331 75.74L84.8919 73.8197C84.2551 73.6344 83.6631 73.6511 83.1404 73.8393C82.6284 74.0237 82.2544 74.3464 81.9952 74.6614L83.5394 75.9323ZM84.3331 75.74C87.5608 76.6793 90.7358 77.7435 93.8914 78.8609L94.559 76.9755C91.3836 75.8512 88.1695 74.7734 84.8919 73.8197L84.3331 75.74ZM93.8802 78.8568C94.1124 78.9421 94.2018 79.0302 94.226 79.0604C94.237 79.0742 94.2356 79.0768 94.2328 79.0679C94.2316 79.0641 94.2307 79.0598 94.2302 79.0556C94.23 79.0537 94.2299 79.052 94.2299 79.0508C94.2298 79.0496 94.2299 79.049 94.2299 79.049C94.2299 79.049 94.2296 79.0525 94.2278 79.0597C94.2259 79.0669 94.2224 79.0782 94.2156 79.0937C94.202 79.1249 94.1759 79.1716 94.1279 79.2305C94.0303 79.3502 93.8566 79.5025 93.5771 79.6529L94.5248 81.4141C95.4074 80.9391 96.1518 80.174 96.2244 79.1972C96.3056 78.1036 95.5288 77.3319 94.5702 76.9796L93.8802 78.8568ZM93.5731 79.6551C89.6841 81.7708 85.8005 83.8338 81.9028 85.9294L82.8499 87.6909C86.7352 85.602 90.6348 83.5304 94.5289 81.4119L93.5731 79.6551ZM81.9023 85.9297C75.4296 89.4148 68.9484 92.8796 62.4984 96.3931L63.4551 98.1495C69.8994 94.6391 76.3707 91.1796 82.8504 87.6906L81.9023 85.9297ZM62.4906 96.3974C62.0603 96.6368 61.7264 96.7236 61.4297 96.7291C61.1294 96.7348 60.7832 96.6588 60.3266 96.4424L59.47 98.2497C60.117 98.5563 60.7728 98.7418 61.4672 98.7288C62.1652 98.7157 62.8186 98.5036 63.4629 98.1452L62.4906 96.3974ZM60.3301 96.444C49.0807 91.059 37.8266 85.7604 26.6157 80.355L25.747 82.1566C36.956 87.561 48.238 92.873 59.4666 98.248L60.3301 96.444ZM26.6051 80.35C26.4311 80.2686 26.1977 80.0938 26.0121 79.8814C25.9228 79.7793 25.8641 79.6906 25.832 79.6271C25.7959 79.5559 25.8164 79.5633 25.8164 79.6368H23.8164C23.8164 80.2859 24.2032 80.8511 24.5065 81.198C24.8436 81.5834 25.2926 81.9441 25.7576 82.1616L26.6051 80.35ZM25.8164 79.6368C25.8164 79.84 25.7267 79.9276 25.7702 79.8689C25.7985 79.8309 25.8642 79.7597 25.9781 79.6677C26.2079 79.4822 26.5067 79.3135 26.734 79.2288L26.0352 77.3548C25.5946 77.5191 25.1093 77.7988 24.7219 78.1115C24.5273 78.2686 24.3262 78.4589 24.1648 78.6762C24.0187 78.8728 23.8164 79.2094 23.8164 79.6368H25.8164ZM26.7343 79.2287C29.8626 78.0611 33.0513 77.0024 36.244 75.872L35.5764 73.9866C32.4381 75.0979 29.1797 76.1812 26.035 77.3549L26.7343 79.2287ZM36.2467 75.871C36.7246 75.7002 37.0424 75.6535 37.2491 75.6809C37.3838 75.6988 37.5166 75.7472 37.671 75.9994L39.3768 74.9552C38.9213 74.2111 38.2701 73.7987 37.5118 73.6982C36.8254 73.6073 36.1413 73.7848 35.5737 73.9876L36.2467 75.871ZM37.6667 75.9922C37.7153 76.0732 37.7057 76.0954 37.7059 76.0696C37.7061 76.038 37.7195 76.0293 37.7001 76.0572C37.6368 76.148 37.3978 76.3628 36.7794 76.5728L37.4224 78.4666C38.198 78.2033 38.9174 77.8079 39.3405 77.2013C39.5643 76.8805 39.7029 76.5012 39.7059 76.0837C39.7088 75.6717 39.5794 75.2923 39.3812 74.9624L37.6667 75.9922ZM36.7612 76.5791C35.6819 76.9689 34.4362 77.3611 33.1233 77.7698C31.8185 78.176 30.4496 78.5978 29.156 79.0391L29.8016 80.932C31.0637 80.5015 32.4022 80.0889 33.7178 79.6794C35.0252 79.2724 36.3127 78.8675 37.4405 78.4602L36.7612 76.5791Z" fill="#FE8647" mask="url(#path-1-inside-1_167_62)"/>
<mask id="path-3-inside-2_167_62" fill="white">
<path d="M69.3688 79.118C74.6741 73.4443 79.9301 67.7954 85.4574 61.875C84.1003 61.949 83.0639 62.023 82.0275 62.0724C81.3366 62.1217 80.6456 62.1957 79.93 62.1957C79.1157 62.2204 78.4742 61.7517 78.5729 60.9623C78.6469 60.4443 79.2144 59.6302 79.6093 59.5809C82.595 59.2602 85.5808 59.0629 88.5913 58.9642C89.6277 58.9395 90.1952 59.7536 90.2199 60.7896C90.2446 63.5771 90.2446 66.3893 90.2199 69.1768C90.2199 70.0402 89.7264 70.5828 88.838 70.5828C87.9497 70.5828 87.5055 70.0155 87.5055 69.1274C87.4809 67.45 87.5055 65.7726 87.5055 63.8238C87.0614 64.2432 86.7653 64.4898 86.5185 64.7612C81.3613 70.2868 76.204 75.8125 71.0221 81.3381C69.6155 82.8429 69.1714 82.8675 67.7155 81.4121C60.7816 74.5051 53.8477 67.598 46.9137 60.691C46.6423 60.4196 46.1158 60.0303 46.0023 59.7188C45.8312 59.2491 45.709 58.7625 46.3215 58.1501C46.934 57.5378 47.3834 57.672 47.8719 57.8494C48.168 57.8987 48.5917 58.4955 48.8631 58.7668C55.3529 65.2299 61.8673 71.6929 68.3571 78.1806C68.7025 78.5013 68.9986 78.7727 69.3688 79.118Z"/>
</mask>
<path d="M69.3688 79.118C74.6741 73.4443 79.9301 67.7954 85.4574 61.875C84.1003 61.949 83.0639 62.023 82.0275 62.0724C81.3366 62.1217 80.6456 62.1957 79.93 62.1957C79.1157 62.2204 78.4742 61.7517 78.5729 60.9623C78.6469 60.4443 79.2144 59.6302 79.6093 59.5809C82.595 59.2602 85.5808 59.0629 88.5913 58.9642C89.6277 58.9395 90.1952 59.7536 90.2199 60.7896C90.2446 63.5771 90.2446 66.3893 90.2199 69.1768C90.2199 70.0402 89.7264 70.5828 88.838 70.5828C87.9497 70.5828 87.5055 70.0155 87.5055 69.1274C87.4809 67.45 87.5055 65.7726 87.5055 63.8238C87.0614 64.2432 86.7653 64.4898 86.5185 64.7612C81.3613 70.2868 76.204 75.8125 71.0221 81.3381C69.6155 82.8429 69.1714 82.8675 67.7155 81.4121C60.7816 74.5051 53.8477 67.598 46.9137 60.691C46.6423 60.4196 46.1158 60.0303 46.0023 59.7188C45.8312 59.2491 45.709 58.7625 46.3215 58.1501C46.934 57.5378 47.3834 57.672 47.8719 57.8494C48.168 57.8987 48.5917 58.4955 48.8631 58.7668C55.3529 65.2299 61.8673 71.6929 68.3571 78.1806C68.7025 78.5013 68.9986 78.7727 69.3688 79.118Z" fill="#FE8647"/>
<path d="M69.3688 79.118L68.6866 79.8492L69.4169 80.5306L70.0992 79.801L69.3688 79.118ZM85.4574 61.875L86.1884 62.5575L87.8841 60.7412L85.403 60.8765L85.4574 61.875ZM82.0275 62.0724L81.9799 61.0735L81.9681 61.0741L81.9563 61.0749L82.0275 62.0724ZM79.93 62.1957V61.1957H79.9149L79.8998 61.1962L79.93 62.1957ZM78.5729 60.9623L77.5829 60.8208L77.5817 60.8295L77.5806 60.8382L78.5729 60.9623ZM79.6093 59.5809L79.5025 58.5866L79.4939 58.5875L79.4853 58.5886L79.6093 59.5809ZM88.5913 58.9642L88.5675 57.9644L88.5585 57.9647L88.5913 58.9642ZM90.2199 60.7896L91.2199 60.7808L91.2198 60.7733L91.2196 60.7658L90.2199 60.7896ZM90.2199 69.1768L89.2199 69.1679V69.1768H90.2199ZM87.5055 69.1274H88.5055V69.1201L88.5054 69.1127L87.5055 69.1274ZM87.5055 63.8238H88.5055V61.5044L86.819 63.0967L87.5055 63.8238ZM86.5185 64.7612L87.2496 65.4436L87.2583 65.434L86.5185 64.7612ZM71.0221 81.3381L70.2926 80.6541L70.2915 80.6553L71.0221 81.3381ZM67.7155 81.4121L68.4225 80.7049L68.4212 80.7037L67.7155 81.4121ZM46.9137 60.691L46.2067 61.3982L46.208 61.3994L46.9137 60.691ZM46.0023 59.7188L45.0627 60.061L46.0023 59.7188ZM46.3215 58.1501L45.6145 57.4429L45.6145 57.4429L46.3215 58.1501ZM47.8719 57.8494L47.5305 58.7893L47.6169 58.8207L47.7076 58.8358L47.8719 57.8494ZM48.8631 58.7668L48.1561 59.4741L48.1575 59.4754L48.8631 58.7668ZM68.3571 78.1806L67.6501 78.8878L67.6632 78.9009L67.6767 78.9135L68.3571 78.1806ZM70.0992 79.801C75.4044 74.1275 80.663 68.4756 86.1884 62.5575L84.7265 61.1926C79.1971 67.1151 73.9438 72.7612 68.6384 78.435L70.0992 79.801ZM85.403 60.8765C84.0173 60.9521 83.0192 61.024 81.9799 61.0735L82.075 63.0712C83.1086 63.022 84.1833 62.946 85.5119 62.8735L85.403 60.8765ZM81.9563 61.0749C81.2196 61.1275 80.5981 61.1957 79.93 61.1957V63.1957C80.6932 63.1957 81.4536 63.1159 82.0987 63.0698L81.9563 61.0749ZM79.8998 61.1962C79.6781 61.2029 79.5757 61.1385 79.5574 61.1229C79.552 61.1183 79.5585 61.1229 79.563 61.1349C79.5677 61.147 79.5589 61.1363 79.5651 61.0864L77.5806 60.8382C77.4906 61.5582 77.7477 62.2087 78.2607 62.6456C78.7421 63.0556 79.3677 63.2132 79.9603 63.1952L79.8998 61.1962ZM79.5628 61.1038C79.5623 61.1072 79.564 61.0947 79.5735 61.0653C79.5827 61.0369 79.5969 61.0002 79.6171 60.9568C79.6583 60.8685 79.7148 60.7726 79.7782 60.6857C79.8437 60.5961 79.8995 60.5394 79.9304 60.5137C79.945 60.5015 79.9414 60.5069 79.9184 60.519C79.8972 60.5301 79.8334 60.5607 79.7333 60.5732L79.4853 58.5886C79.1085 58.6357 78.8204 58.8357 78.6519 58.9757C78.4631 59.1327 78.2983 59.3211 78.1633 59.5059C77.91 59.8527 77.6517 60.3394 77.5829 60.8208L79.5628 61.1038ZM79.7161 60.5752C82.6747 60.2574 85.6356 60.0616 88.624 59.9636L88.5585 57.9647C85.526 58.0641 82.5154 58.263 79.5025 58.5866L79.7161 60.5752ZM88.6151 59.9639C88.8376 59.9586 88.9431 60.0308 89.0163 60.1187C89.1115 60.2332 89.2117 60.4592 89.2202 60.8134L91.2196 60.7658C91.2034 60.084 91.0075 59.3849 90.5537 58.8395C90.0778 58.2676 89.3814 57.9451 88.5675 57.9645L88.6151 59.9639ZM89.2199 60.7985C89.2446 63.5801 89.2446 66.3863 89.2199 69.1679L91.2199 69.1856C91.2446 66.3922 91.2446 63.5742 91.2199 60.7808L89.2199 60.7985ZM89.2199 69.1768C89.2199 69.4217 89.1524 69.4989 89.1415 69.5102C89.1363 69.5156 89.0752 69.5828 88.838 69.5828V71.5828C89.4892 71.5828 90.119 71.3788 90.5826 70.897C91.0407 70.421 91.2199 69.7952 91.2199 69.1768H89.2199ZM88.838 69.5828C88.7218 69.5828 88.6574 69.5643 88.6286 69.5527C88.6033 69.5425 88.595 69.534 88.59 69.5282C88.5786 69.5153 88.5055 69.4177 88.5055 69.1274H86.5055C86.5055 69.7252 86.6546 70.3554 87.0873 70.8481C87.5382 71.3614 88.1709 71.5828 88.838 71.5828V69.5828ZM88.5054 69.1127C88.4809 67.444 88.5055 65.7929 88.5055 63.8238H86.5055C86.5055 65.7522 86.4809 67.456 86.5057 69.1421L88.5054 69.1127ZM86.819 63.0967C86.4356 63.4587 86.0581 63.7812 85.7787 64.0884L87.2583 65.434C87.4725 65.1985 87.6872 65.0276 88.1921 64.5509L86.819 63.0967ZM85.7875 64.0789C80.6301 69.6047 75.4736 75.1294 70.2926 80.6541L71.7515 82.0222C76.9344 76.4955 82.0924 70.969 87.2496 65.4435L85.7875 64.0789ZM70.2915 80.6553C69.946 81.0249 69.7085 81.2493 69.5276 81.3812C69.3537 81.508 69.3159 81.4867 69.361 81.4855C69.4085 81.4843 69.3758 81.5091 69.2031 81.394C69.0217 81.2731 68.7788 81.0612 68.4225 80.7049L67.0085 82.1194C67.3801 82.4908 67.7387 82.8216 68.094 83.0583C68.458 83.3009 68.8973 83.4984 69.4136 83.4848C69.9275 83.4713 70.3555 83.2527 70.7059 82.9972C71.0494 82.7467 71.3948 82.4038 71.7526 82.021L70.2915 80.6553ZM68.4212 80.7037C64.9543 77.2501 61.4873 73.7966 58.0203 70.3431C54.5534 66.8895 51.0864 63.436 47.6195 59.9825L46.208 61.3994C49.675 64.853 53.1419 68.3065 56.6089 71.76C60.0758 75.2136 63.5428 78.6671 67.0098 82.1206L68.4212 80.7037ZM47.6207 59.9837C47.5291 59.8921 47.4237 59.798 47.3378 59.7216C47.2438 59.6379 47.1625 59.5659 47.0863 59.4938C47.0098 59.4213 46.9584 59.3672 46.9267 59.3286C46.8879 59.2815 46.9142 59.3005 46.9419 59.3765L45.0627 60.061C45.1472 60.2928 45.2819 60.4774 45.3822 60.5993C45.4896 60.7298 45.6081 60.8484 45.7113 60.9461C45.8149 61.0442 45.9231 61.1399 46.0078 61.2152C46.1005 61.2978 46.1626 61.3541 46.2067 61.3982L47.6207 59.9837ZM46.9419 59.3765C46.8608 59.1539 46.862 59.0991 46.8635 59.0834C46.8637 59.0814 46.864 59.0793 46.8651 59.0756C46.8662 59.0718 46.8693 59.0626 46.8772 59.0473C46.8933 59.0163 46.9334 58.9524 47.0285 58.8573L45.6145 57.4429C45.1832 57.8742 44.9242 58.3547 44.8726 58.8926C44.8249 59.3906 44.9727 59.814 45.0627 60.061L46.9419 59.3765ZM47.0285 58.8574C47.1267 58.7593 47.189 58.7205 47.2153 58.7068C47.2364 58.6959 47.2368 58.6993 47.2263 58.7001C47.2205 58.7006 47.2339 58.698 47.2835 58.7095C47.3398 58.7226 47.4098 58.7455 47.5305 58.7893L48.2133 56.9094C47.9824 56.8256 47.5555 56.6658 47.0602 56.7071C46.5137 56.7526 46.0391 57.0185 45.6145 57.4429L47.0285 58.8574ZM47.7076 58.8358C47.6069 58.819 47.5412 58.7867 47.5179 58.7742C47.4925 58.7607 47.4849 58.7532 47.4965 58.7623C47.5224 58.7826 47.5709 58.8271 47.6461 58.9076C47.7195 58.9861 47.7935 59.0718 47.8808 59.1722C47.9589 59.2619 48.0593 59.3772 48.1561 59.4741L49.5701 58.0596C49.5313 58.0208 49.4769 57.9598 49.3899 57.8597C49.3122 57.7703 49.2109 57.6529 49.1075 57.5421C49.0058 57.4333 48.8759 57.3024 48.7306 57.1885C48.606 57.0907 48.3621 56.9173 48.0363 56.863L47.7076 58.8358ZM48.1575 59.4754C54.6491 65.9403 61.1611 72.4009 67.6501 78.8878L69.0641 77.4734C62.5735 70.9849 56.0566 64.5194 49.5688 58.0583L48.1575 59.4754ZM67.6767 78.9135C68.0295 79.241 68.3159 79.5033 68.6866 79.8492L70.051 78.3868C69.6814 78.042 69.3756 77.7616 69.0374 77.4477L67.6767 78.9135Z" fill="#FE8647" mask="url(#path-3-inside-2_167_62)"/>
<path d="M68.3867 38.9512L68.3868 38.9511C66.5384 35.5635 64.5554 32.2227 62.5729 28.8826C62.0204 27.9518 61.468 27.021 60.9185 26.0894C60.5682 25.4987 60.2256 25.3468 59.9982 25.3512C59.7626 25.3557 59.4059 25.5304 59.0398 26.1396C58.4161 27.2013 57.7913 28.2608 57.1668 29.3199C55.2935 32.4965 53.4225 35.6693 51.5925 38.8847C49.6048 42.3917 50.1376 47.0469 52.8435 50.1756L68.3867 38.9512ZM68.3867 38.9512L68.3912 38.959M68.3867 38.9512L68.3912 38.959M68.3912 38.959C68.7682 39.6214 69.0204 40.3585 69.2418 41.1497C69.3256 41.4494 69.4077 41.7682 69.4914 42.0934C69.6125 42.5637 69.737 43.0475 69.8754 43.5065M68.3912 38.959L69.8754 43.5065M69.8754 43.5065C69.5851 47.74 67.0823 51.4065 63.4176 52.7981C59.6865 54.2055 55.4183 53.147 52.8438 50.1759L69.8754 43.5065ZM60.4487 28.6671L60.016 27.923L59.584 28.6674C58.8462 29.9386 58.1085 31.1836 57.3792 32.4145C55.8257 35.0364 54.3104 37.5939 52.9132 40.2023L52.9126 40.2034C51.1548 43.5048 52.3873 47.8096 55.2945 50.0359C58.0939 52.2 62.0992 52.1463 64.8439 49.9564L64.8444 49.9561C67.7287 47.6494 68.8236 43.395 67.0455 40.0788C65.6406 37.4583 64.114 34.8797 62.5489 32.2361C61.854 31.0624 61.1515 29.8758 60.4487 28.6671Z" fill="#FE8647" stroke="#FE8647"/>
<path d="M57.2257 74.3218C55.5582 76.0809 53.9591 77.7729 52.1887 79.6577L51.8336 80.0358L51.4688 79.6671C47.9628 76.1238 44.494 72.611 41.0445 69.1179C37.8448 65.8776 34.6618 62.6543 31.4813 59.4392L31.4753 59.4331L31.4694 59.4268C31.1823 59.1158 30.8757 58.8098 30.5491 58.5299L30.5441 58.5257L30.5442 58.5256C30.2978 58.3089 30.0878 58.2355 29.9226 58.2339C29.7634 58.2324 29.569 58.2966 29.345 58.5113C29.1257 58.7214 29.0579 58.9093 29.0548 59.0696C29.0515 59.24 29.1202 59.4583 29.3205 59.719C29.427 59.8557 29.5491 59.9742 29.6944 60.1151C29.7495 60.1686 29.808 60.2254 29.8702 60.2876C32.0169 62.4212 34.1574 64.5549 36.2976 66.6882L36.2983 66.6889C38.4389 68.8227 40.5792 70.9561 42.7256 73.0895L57.2257 74.3218ZM57.2257 74.3218C57.4169 74.5256 57.599 74.7186 57.7792 74.9097C57.9914 75.1346 58.2011 75.3569 58.4202 75.5908C58.0994 75.9357 57.7782 76.2818 57.4564 76.6286C55.8485 78.3616 54.225 80.1112 52.5544 81.8007L52.5544 81.8007L52.5505 81.8047C52.4219 81.9377 52.3123 81.9953 52.2263 82.0197C52.1411 82.0439 52.0483 82.0442 51.9386 82.0147C51.7 81.9506 51.4185 81.755 51.1167 81.4533C48.3286 78.6661 45.5396 75.878 42.7259 73.0898L57.2257 74.3218Z" fill="#FE8647" stroke="#FE8647"/>
<path d="M68.5006 62.2157L69.359 61.2943L68.1024 61.3759C67.4782 61.4164 66.8934 61.4568 66.3347 61.4953C65.1841 61.5747 64.1446 61.6465 63.1018 61.6961L63.1018 61.6961L63.0962 61.6964C62.5251 61.73 62.1495 61.6283 61.9386 61.4871C61.7571 61.3657 61.66 61.1932 61.6754 60.9159L61.6754 60.9159L61.6757 60.9103C61.6943 60.4919 61.8375 60.3147 62.0033 60.2089C62.2118 60.0759 62.5381 60.0052 63.0031 59.9814L63.0031 59.9814L63.0071 59.9812C64.2569 59.907 65.5121 59.8142 66.7632 59.7218L66.7651 59.7217C68.0178 59.6292 69.2663 59.5369 70.508 59.4632C71.3193 59.4169 71.7586 59.5666 72.0047 59.7992C72.2509 60.0318 72.4219 60.4589 72.4219 61.2582V61.2729V61.2876V61.3024V61.3171V61.3319V61.3466V61.3613V61.3761V61.3908V61.4056V61.4203V61.435V61.4498V61.4645V61.4792V61.494V61.5087V61.5234V61.5382V61.5529V61.5676V61.5824V61.5971V61.6118V61.6266V61.6413V61.656V61.6708V61.6855V61.7002V61.7149V61.7297V61.7444V61.7591V61.7738V61.7886V61.8033V61.818V61.8327V61.8475V61.8622V61.8769V61.8916V61.9063V61.9211V61.9358V61.9505V61.9652V61.9799V61.9947V62.0094V62.0241V62.0388V62.0535V62.0682V62.083V62.0977V62.1124V62.1271V62.1418V62.1565V62.1712V62.1859V62.2007V62.2154V62.2301V62.2448V62.2595V62.2742V62.2889V62.3036V62.3183V62.333V62.3477V62.3625V62.3772V62.3919V62.4066V62.4213V62.436V62.4507V62.4654V62.4801V62.4948V62.5095V62.5242V62.5389V62.5536V62.5683V62.583V62.5977V62.6124V62.6271V62.6418V62.6565V62.6712V62.6859V62.7006V62.7153V62.73V62.7447V62.7594V62.7741V62.7888V62.8035V62.8182V62.8329V62.8476V62.8623V62.877V62.8917V62.9064V62.921V62.9357V62.9504V62.9651V62.9798V62.9945V63.0092V63.0239V63.0386V63.0533V63.068V63.0827V63.0973V63.112V63.1267V63.1414V63.1561V63.1708V63.1855V63.2002V63.2149V63.2295V63.2442V63.2589V63.2736V63.2883V63.303V63.3177V63.3323V63.347V63.3617V63.3764V63.3911V63.4058V63.4205V63.4351V63.4498V63.4645V63.4792V63.4939V63.5086V63.5232V63.5379V63.5526V63.5673V63.582V63.5966V63.6113V63.626V63.6407V63.6554V63.67V63.6847V63.6994V63.7141V63.7288V63.7434V63.7581V63.7728V63.7875V63.8022V63.8168V63.8315V63.8462V63.8609V63.8755V63.8902V63.9049V63.9196V63.9343V63.9489V63.9636V63.9783V63.993V64.0076V64.0223V64.037V64.0517V64.0663V64.081V64.0957V64.1104V64.125V64.1397V64.1544V64.1691V64.1837V64.1984V64.2131V64.2278V64.2424V64.2571V64.2718V64.2865V64.3011V64.3158V64.3305V64.3452V64.3598V64.3745V64.3892V64.4038V64.4185V64.4332V64.4479V64.4625V64.4772V64.4919V64.5066V64.5212V64.5359V64.5506V64.5652V64.5799V64.5946V64.6093V64.6239V64.6386V64.6533V64.6679V64.6826V64.6973V64.712V64.7266V64.7413V64.756V64.7706V64.7853V64.8V64.8147V64.8293V64.844V64.8587V64.8733V64.888V64.9027V64.9173V64.932V64.9467V64.9614V64.976V64.9907V65.0054V65.02V65.0347V65.0494V65.0641V65.0787V65.0934V65.1081V65.1227V65.1374V65.1521V65.1668V65.1814V65.1961V65.2108V65.2254V65.2401V65.2548V65.2694V65.2841V65.2988V65.3135V65.3281V65.3428V65.3575V65.3721V65.3868V65.4015V65.4162V65.4308V65.4455V65.4602V65.4748V65.4895V65.5042V65.5189V65.5335V65.5482V65.5629V65.5776V65.5922V65.6069V65.6216V65.6362V65.6509V65.6656V65.6803V65.6949V65.7096V65.7243V65.739V65.7536V65.7683V65.783V65.7976V65.8123V65.827V65.8417V65.8563V65.871V65.8857V65.9004V65.915V65.9297V65.9444V65.9591V65.9737V65.9884V66.0031V66.0178V66.0324V66.0471V66.0618V66.0765V66.0912V66.1058V66.1205V66.1352V66.1499V66.1645V66.1792V66.1939V66.2086V66.2232V66.2379V66.2526V66.2673V66.282V66.2966V66.3113V66.326V66.3407V66.3554V66.37V66.3847V66.3994V66.4141V66.4288V66.4434V66.4581V66.4728V66.4875V66.5022V66.5168V66.5315V66.5462V66.5609V66.5756V66.5903V66.6049V66.6196V66.6343V66.649V66.6637V66.6784V66.6931V66.7077V66.7224V66.7371V66.7518V66.7665V66.7812V66.7959V66.8105V66.8252V66.8399V66.8546V66.8693V66.884V66.8987V66.9134V66.928V66.9427V66.9574V66.9721V66.9868V67.0015V67.0162V67.0309V67.0456V67.0603V67.075V67.0896V67.1043V67.119V67.1337V67.1484V67.1631V67.1778V67.1925V67.2072V67.2219V67.2366V67.2513V67.266V67.2807V67.2954V67.3101V67.3248V67.3395V67.3542V67.3689V67.3836V67.3983V67.413V67.4277V67.4424V67.4571V67.4718V67.4865V67.5012V67.5159V67.5306V67.5453V67.56V67.5747V67.5894V67.6041V67.6188V67.6335V67.6482V67.6629V67.6776V67.6923V67.707V67.7218V67.7365V67.7512V67.7659V67.7806V67.7953V67.81V67.8247V67.8394V67.8541V67.8689V67.8836V67.8983V67.913V67.9277V67.9424V67.9571V67.9718V67.9866V68.0013V68.016V68.0307V68.0454V68.0601V68.0749V68.0896V68.1043V68.119V68.1337V68.1485V68.1632V68.1779V68.1926V68.2074V68.2221V68.2368V68.2515V68.2662V68.281V68.2957V68.3104V68.3251V68.3399V68.3546V68.3693V68.3841V68.3988V68.4135V68.4282V68.443V68.4577V68.4724V68.4872V68.5019V68.5166V68.5314V68.5461V68.5608V68.5756V68.5903V68.605V68.6198V68.6345V68.6493V68.664V68.6787V68.6935V68.7082V68.723V68.7377V68.7524V68.7672V68.7819C72.4219 69.2434 72.3646 69.5674 72.2412 69.777C72.1424 69.9447 71.9686 70.0959 71.5471 70.1338C71.232 70.1589 71.0693 70.0665 70.9588 69.9164C70.8204 69.7282 70.7075 69.3688 70.7075 68.7573H70.7076L70.7075 68.7493C70.6915 67.7433 70.6963 66.7516 70.7016 65.65C70.7045 65.0551 70.7075 64.4282 70.7075 63.7496V62.4795L69.8417 63.4088C68.9016 64.4178 67.996 65.3846 67.1128 66.3274C65.9224 67.598 64.773 68.825 63.6352 70.053C63.433 69.8455 63.2356 69.6443 63.0389 69.4438L63.0383 69.4432C62.8285 69.2294 62.6195 69.0163 62.4053 68.7963C64.2167 66.8135 66.0594 64.8357 68.1297 62.6138C68.2525 62.4819 68.3761 62.3493 68.5006 62.2157Z" fill="#FE8647" stroke="#FE8647"/>
<path d="M64.0333 43.2576L64.0333 43.2576L64.0416 43.2602C64.1946 43.3067 64.3604 43.4344 64.5457 43.634C64.6261 43.7205 64.6994 43.8083 64.7744 43.8981C64.7827 43.9081 64.7911 43.9181 64.7995 43.9282C64.8263 43.9602 64.8556 43.9952 64.8865 44.0309C64.8051 45.1703 64.3062 46.2486 63.5834 47.0867C62.8148 47.9778 61.8291 48.5571 60.8944 48.6745C60.5294 48.7172 60.2687 48.6754 60.0973 48.5843C59.9469 48.5045 59.8105 48.3587 59.7394 48.048C59.6668 47.7305 59.7247 47.5226 59.8251 47.3794C59.9329 47.2254 60.1365 47.0803 60.4665 46.9899C61.2006 46.7991 61.8224 46.4692 62.2899 45.9647C62.7595 45.458 63.0416 44.8095 63.1521 44.0377C63.2019 43.7006 63.3341 43.4619 63.4796 43.337C63.6031 43.2309 63.7713 43.1728 64.0333 43.2576Z" fill="#FE8647" stroke="#FE8647"/>
</svg>
