<svg width="120" height="120" viewBox="0 0 120 120" fill="none" xmlns="http://www.w3.org/2000/svg">
<path d="M62.7088 62.0014L62.6984 62.0173L62.6884 62.0333L57.8275 69.863C57.1818 70.903 56.0398 71.5301 54.8158 71.5167L44.6685 71.4062L44.6521 71.406L44.6358 71.4062L34.4885 71.5167C33.2645 71.5301 32.1224 70.903 31.4768 69.863L26.6159 62.0333L26.6059 62.0173L26.5955 62.0014L21.7791 54.6635C21.0137 53.4975 21.0137 51.9884 21.7791 50.8224L26.5955 43.4845L26.6059 43.4687L26.6159 43.4526L31.4768 35.6229C32.1224 34.5829 33.2645 33.9558 34.4885 33.9692L44.6358 34.0798L44.6521 34.0799L44.6685 34.0798L54.8158 33.9692C56.0398 33.9559 57.1818 34.5829 57.8275 35.6229L62.6884 43.4526L62.6984 43.4687L62.7088 43.4845L67.5252 50.8224C68.2905 51.9884 68.2905 53.4975 67.5252 54.6635L62.7088 62.0014Z" fill="#E7EEEE" stroke="#FE8647" stroke-width="3"/>
<path d="M51.8915 43.4856H72.1692C73.8264 43.4856 75.2564 44.6478 75.5953 46.2699L83.3012 83.1609C83.7553 85.3348 82.096 87.3766 79.8751 87.3766H44.1855C41.9647 87.3766 40.3054 85.3348 40.7595 83.1609L48.4654 46.2699C48.8042 44.6478 50.2343 43.4856 51.8915 43.4856Z" fill="#E7EEEE" stroke="#FE8647" stroke-width="3"/>
<path d="M101.629 65.1553C101.629 69.0757 99.2723 72.8014 95.1002 75.614C90.9371 78.4206 85.1008 80.2051 78.58 80.2051C72.0593 80.2051 66.223 78.4206 62.0599 75.614C57.8878 72.8014 55.5312 69.0757 55.5312 65.1553C55.5312 61.235 57.8878 57.5093 62.0599 54.6967C66.223 51.8901 72.0593 50.1056 78.58 50.1056C85.1008 50.1056 90.9371 51.8901 95.1002 54.6967C99.2723 57.5093 101.629 61.235 101.629 65.1553Z" fill="#E7EEEE" stroke="#FE8647" stroke-width="3"/>
</svg>
