<svg width="32" height="32" viewBox="0 0 32 32" fill="none" xmlns="http://www.w3.org/2000/svg">
<path d="M0 7.27507C0.00638085 5.47678 0.427517 3.81731 1.67816 2.44177C2.87138 1.12303 4.42193 0.422639 6.132 0.0314319C6.60418 -0.0758346 7.05722 0.107149 7.47836 0.327992C8.26958 0.750748 8.88853 1.36911 9.4309 2.0695C10.4965 3.45134 11.2431 4.98462 11.4919 6.71981C11.5621 7.20567 11.5238 7.70414 11.5174 8.1963C11.5174 8.53703 11.3196 8.78942 11.058 8.98503C10.5539 9.36993 10.0243 9.72958 9.53937 10.1397C9.11824 10.4931 8.73539 10.8843 8.35892 11.2818C8.04625 11.6162 7.96968 12.0453 8.14197 12.4617C8.40358 13.0801 8.65882 13.7111 9.02252 14.2663C10.4391 16.4369 12.2385 18.2794 14.1655 20.0145C15.3779 21.1061 16.6349 22.1409 18.0961 22.9044C18.4853 23.1063 18.9192 23.2389 19.3404 23.3587C19.6785 23.4534 19.9784 23.3335 20.2209 23.0559C21.044 22.1031 21.8672 21.1566 22.7095 20.2228C22.9711 19.9325 23.2518 19.6549 23.5709 19.434C23.7368 19.3142 24.0111 19.2574 24.2153 19.2952C26.187 19.6486 27.9609 20.4941 29.6518 21.5289C30.2644 21.9075 30.845 22.3429 31.4576 22.7151C31.8787 22.9675 32.0255 23.3272 32.0064 23.7752C31.9489 25.3337 31.5086 26.7534 30.4686 27.9523C28.4139 30.3311 25.7659 31.2649 22.6712 30.9494C20.5017 30.7286 18.4789 29.9651 16.5264 29.0502C9.30328 25.6555 4.21136 20.2543 1.22512 12.9286C0.484945 11.1114 0.0191426 9.23742 0 7.27507Z" fill="white"/>
</svg>
