<svg width="32" height="31" viewBox="0 0 32 31" fill="none" xmlns="http://www.w3.org/2000/svg">
<g clip-path="url(#clip0_158_5321)">
<path d="M0 7.27514C0.00638085 5.47684 0.427517 3.81737 1.67816 2.44183C2.87138 1.12309 4.42193 0.4227 6.132 0.0314929C6.60418 -0.0757736 7.05722 0.10721 7.47836 0.328053C8.26958 0.750809 8.88853 1.36917 9.4309 2.06956C10.4965 3.4514 11.2431 4.98468 11.4919 6.71987C11.5621 7.20573 11.5238 7.7042 11.5174 8.19636C11.5174 8.53709 11.3196 8.78948 11.058 8.98509C10.5539 9.36999 10.0243 9.72964 9.53937 10.1398C9.11824 10.4931 8.73539 10.8843 8.35892 11.2819C8.04625 11.6163 7.96968 12.0453 8.14197 12.4618C8.40358 13.0801 8.65882 13.7111 9.02252 14.2664C10.4391 16.437 12.2385 18.2794 14.1655 20.0146C15.3779 21.1062 16.6349 22.141 18.0961 22.9045C18.4853 23.1064 18.9192 23.2389 19.3404 23.3588C19.6785 23.4534 19.9784 23.3336 20.2209 23.0559C21.044 22.1031 21.8672 21.1567 22.7094 20.2228C22.9711 19.9326 23.2518 19.655 23.5709 19.4341C23.7368 19.3142 24.0111 19.2574 24.2153 19.2953C26.187 19.6486 27.9609 20.4942 29.6518 21.529C30.2644 21.9075 30.845 22.3429 31.4576 22.7152C31.8787 22.9676 32.0255 23.3272 32.0064 23.7752C31.9489 25.3338 31.5086 26.7535 30.4686 27.9523C28.4139 30.3311 25.7659 31.265 22.6712 30.9495C20.5017 30.7286 18.4789 29.9652 16.5264 29.0502C9.30328 25.6556 4.21136 20.2544 1.22512 12.9287C0.484945 11.1115 0.0191426 9.23748 0 7.27514Z" fill="white"/>
<g clip-path="url(#clip1_158_5321)">
<path d="M30.9334 13.2842C30.9334 13.4793 30.9376 13.662 30.9334 13.8405C30.9127 14.4757 30.4283 14.9572 29.8073 14.9655C29.1822 14.9738 28.7019 14.513 28.6522 13.8779C28.5984 13.168 28.5736 12.454 28.4576 11.7524C27.6545 7.0531 23.7959 3.22143 19.1052 2.46174C18.4552 2.35795 17.7886 2.32889 17.1303 2.29153C16.4845 2.25002 15.9918 1.75601 16.0001 1.12086C16.0084 0.494008 16.5011 0.00830288 17.1469 2.3318e-07C17.4491 -0.00415109 17.7555 0.00415156 18.0577 0.0249082C21.022 0.236626 23.6717 1.27446 25.9488 3.18822C28.7226 5.52126 30.3455 8.50191 30.8216 12.1011C30.8713 12.4996 30.8962 12.8982 30.9334 13.2842Z" fill="white"/>
<path d="M26.3338 13.4005C26.3338 13.5458 26.3338 13.6579 26.3338 13.7658C26.3338 14.4383 25.8577 14.9489 25.216 14.9614C24.5618 14.9738 24.0733 14.4798 24.0443 13.7949C24.0277 13.4212 24.007 13.0476 23.9491 12.6781C23.5144 9.78882 21.0841 7.38106 18.1985 6.97838C17.8631 6.93271 17.5278 6.9078 17.1883 6.89535C16.4969 6.87875 15.9918 6.39304 16.0001 5.72883C16.0084 5.08122 16.5176 4.60797 17.209 4.60797C21.2373 4.61212 24.8599 7.35615 25.9653 11.2501C26.0688 11.6071 26.1475 11.9766 26.2096 12.3419C26.2717 12.7072 26.2965 13.0725 26.3338 13.4005Z" fill="white"/>
<path d="M21.7258 13.6122C21.8334 14.5753 21.0054 15.1606 20.2229 14.9074C19.7468 14.7538 19.4694 14.3387 19.4446 13.7741C19.4032 12.6989 18.6994 11.8188 17.6685 11.5739C17.4905 11.5324 17.3 11.5158 17.1179 11.5116C16.4844 11.4867 15.9959 10.9886 16 10.3576C16.0042 9.73072 16.4968 9.23671 17.1344 9.22426C19.4611 9.17859 21.5395 11.0799 21.7092 13.4046C21.7175 13.4752 21.7216 13.5416 21.7258 13.6122Z" fill="white"/>
</g>
</g>
<defs>
<clipPath id="clip0_158_5321">
<rect width="32" height="31" fill="white"/>
</clipPath>
<clipPath id="clip1_158_5321">
<rect width="14.9333" height="14.9655" fill="white" transform="translate(16)"/>
</clipPath>
</defs>
</svg>
